<?xml version="1.0" standalone="no"?>
<!DOCTYPE svg PUBLIC "-//W3C//DTD SVG 1.1//EN" "http://www.w3.org/Graphics/SVG/1.1/DTD/svg11.dtd" >
<svg xmlns="http://www.w3.org/2000/svg">
<metadata></metadata>
<defs>
<font id="sukhumvit_setthin" horiz-adv-x="0" >
<font-face units-per-em="2048" ascent="1638" descent="-410" />
<missing-glyph horiz-adv-x="647" />
<glyph unicode="&#xe2f;&#xe2f;" horiz-adv-x="1605" d="M106 1194v102h104v-104q0 -185 67.5 -272t203.5 -87q86 0 162.5 37t133 93.5t90.5 127.5t34 141v64h97v-477q69 18 127 64.5t99.5 106t64.5 123.5t23 119v64h97v-1296h-108v1002q-21 -42 -50 -84.5t-67 -78.5t-84.5 -62.5t-101.5 -40.5v-736h-110v1002q-22 -51 -63 -96 t-94 -80t-119 -55.5t-142 -20.5q-99 0 -168.5 32.5t-112.5 91t-63 141t-20 179.5z" />
<glyph unicode="&#xe4f;&#x22;" horiz-adv-x="1263" d="M139 556q0 102 38 191.5t105 157t157.5 106t192.5 38.5q101 0 191.5 -38.5t158 -106t105 -157t37.5 -191.5t-37.5 -192.5t-105 -157.5t-158 -106.5t-191.5 -39.5q-102 0 -192.5 39.5t-157.5 106.5t-105 157t-38 193zM201 556q0 -90 34 -168t92.5 -137t137.5 -92.5 t167 -33.5q90 0 167.5 33.5t137 92.5t92.5 137t33 168q0 88 -33 166.5t-92.5 137.5t-137 92t-167.5 33q-88 0 -167 -33t-137.5 -92t-92.5 -138t-34 -166zM366 553q0 55 20.5 104t56.5 84.5t84.5 56.5t101.5 21q56 0 104.5 -21t84.5 -56.5t57 -83t21 -102.5t-21 -104.5 t-57 -84t-84.5 -55t-101.5 -20.5q-56 0 -104.5 20.5t-84.5 56.5t-56.5 83t-20.5 101zM451 553q0 -35 14 -67.5t38.5 -56.5t57.5 -39t71 -15q74 0 125 52t51 129q0 71 -52 123t-127 52q-71 0 -124.5 -52t-53.5 -126zM455 1592h89l-12 -407h-64zM738 1592h88l-11 -407h-65z " />
<glyph unicode="&#xe24;&#xe32;" horiz-adv-x="2177" d="M130 949q23 67 71.5 133t119 118t158.5 83t188 31q139 0 241.5 -47.5t169.5 -129.5q84 74 197.5 125.5t235.5 51.5q115 0 204.5 -38t150 -104t90 -156.5t29.5 -196.5v-1282h-108v1282q0 181 -90.5 290.5t-275.5 109.5q-120 0 -217 -46t-165 -115q53 -107 54 -239v-1282 h-109v1282q0 181 -105.5 290.5t-301.5 109.5q-153 0 -259.5 -76t-160.5 -183l219 -171v-21q-80 -28 -121.5 -90t-41.5 -144v-362q0 -82 79 -82h122v-90h-131q-81 0 -130 42t-49 124v355q0 88 38.5 158.5t112.5 102.5z" />
<glyph unicode="&#xe26;&#xe32;" horiz-adv-x="2186" d="M88 0v90h84q69 0 69 74v357q0 88 40.5 154.5t107.5 99.5l-248 160q23 66 72.5 135t120.5 123.5t160 87.5t189 33q139 0 240.5 -47.5t166.5 -127.5q82 75 195 125t236 50q115 0 204.5 -38t149.5 -104t89.5 -156.5t29.5 -196.5v-1282h-108v1282q0 181 -90.5 290.5 t-274.5 109.5q-120 0 -217.5 -46t-164.5 -115q53 -107 53 -239v-1282h-109v1282q0 181 -102 290.5t-298 109.5q-77 0 -142.5 -23t-120 -60t-95 -84t-64.5 -96l258 -174v-20q-79 -29 -124.5 -87.5t-45.5 -140.5v-375q0 -83 -44 -121t-124 -38h-93z" />
<glyph unicode="fi" horiz-adv-x="1161" d="M42 1029v89h194v23q0 88 22 168t68.5 140t121.5 95t181 35q84 0 152.5 -21t116.5 -49l-23 -76q-47 26 -110 40.5t-127 14.5q-90 0 -147.5 -27.5t-91 -74t-46.5 -111.5t-13 -136v-21h625v-1118h-106v1029h-519v-1029h-104v1029h-194z" />
<glyph unicode="fl" horiz-adv-x="1254" d="M42 1029v89h194v23q0 88 25.5 168t78.5 140t138 95t200 35q102 0 202.5 -17.5t177.5 -43.5v-1518h-107v1458q-44 11 -114.5 20.5t-140.5 9.5q-104 0 -173.5 -27.5t-109.5 -74t-56.5 -111.5t-16.5 -136v-21h345v-89h-345v-1029h-104v1029h-194z" />
<glyph unicode=" "  horiz-adv-x="647" />
<glyph unicode="&#x09;" horiz-adv-x="647" />
<glyph unicode="&#xa0;" horiz-adv-x="647" />
<glyph unicode="!" horiz-adv-x="524" d="M164 77q0 39 24 67t73 28t73 -28.5t24 -66.5q0 -40 -24 -67.5t-73 -27.5t-73 27.5t-24 67.5zM208 1208v351h110v-351l-29 -773h-55z" />
<glyph unicode="&#x22;" horiz-adv-x="684" d="M157 1592h88l-11 -546h-64zM440 1592h88l-12 -546h-65z" />
<glyph unicode="#" horiz-adv-x="1263" d="M60 488v86h241l76 356h-222v86h241l106 488h105l-108 -488h378l106 488h105l-107 -488h222v-86h-240l-77 -356h223v-86h-241l-106 -488h-104l106 488h-378l-106 -488h-104l106 488h-222zM405 574h377l77 356h-378z" />
<glyph unicode="$" horiz-adv-x="1263" d="M157 77l31 87q76 -40 178 -63.5t231 -23.5v647q-77 23 -153 57t-137.5 83.5t-101 119t-39.5 169.5q0 71 26 137t79 115.5t134 79.5t192 36v215h81v-215q104 -5 195.5 -29.5t151.5 -56.5l-27 -79q-62 31 -150.5 47.5t-169.5 22.5v-625q81 -28 157.5 -59t135 -76.5 t95 -110.5t36.5 -159q0 -91 -31 -162.5t-88.5 -123.5t-134.5 -83.5t-170 -40.5v-218h-81v214q-160 0 -266 27.5t-174 67.5zM269 1146q0 -69 24.5 -118t66.5 -85t102.5 -62.5t134.5 -52.5v598q-166 -9 -247 -83t-81 -197zM678 81q139 16 229.5 91t90.5 224q0 74 -26.5 124 t-70.5 82t-102.5 54t-120.5 42v-617z" />
<glyph unicode="%" horiz-adv-x="1720" d="M115 1120q0 77 21 149.5t60.5 129t98.5 90.5t133 34q75 0 132.5 -34t97.5 -90.5t61 -129t21 -149.5t-21 -149.5t-61 -129.5t-98 -90t-132 -33t-133 33t-98.5 90t-60.5 129.5t-21 149.5zM206 1120q0 -62 14 -121.5t41.5 -104t69.5 -73t97 -28.5q56 0 97.5 28.5t69.5 73 t41.5 104t13.5 121.5t-13.5 121.5t-41.5 104.5t-69.5 72.5t-97.5 27.5q-55 0 -97 -27.5t-69.5 -72.5t-41.5 -104.5t-14 -121.5zM389 0l847 1528h97l-847 -1528h-97zM981 384q0 77 21 150t60.5 129.5t98 89.5t133.5 33q74 0 132 -33t98 -89.5t61 -129.5t21 -150t-21 -149.5 t-61 -129t-98.5 -90t-131.5 -33.5q-75 0 -133.5 33.5t-98 90t-60.5 129t-21 149.5zM1071 384q0 -62 14 -121.5t42 -104.5t69.5 -72.5t97.5 -27.5q55 0 97 27.5t69.5 72.5t41 104.5t13.5 121.5t-13.5 121.5t-41 104.5t-69.5 73t-97 28q-56 0 -97.5 -28t-69.5 -73t-42 -104.5 t-14 -121.5z" />
<glyph unicode="&#x26;" horiz-adv-x="1433" d="M153 375q0 91 28.5 161.5t76 129t109 107.5t128.5 95l-51 62q-37 44 -68 84.5t-54.5 80.5t-37 81t-13.5 90q0 64 26.5 122t75 100t116 66.5t149.5 24.5q86 0 150 -25.5t107.5 -68.5t65.5 -98.5t22 -114.5q0 -69 -26.5 -124t-74 -103.5t-112 -95t-143.5 -97.5l493 -595 q60 81 89 192t29 231v79h100v-79q0 -150 -38.5 -270.5t-119.5 -224.5l153 -185h-114l-106 128q-97 -77 -210.5 -111.5t-252.5 -34.5q-128 0 -221 33.5t-155 87.5t-91.5 124.5t-29.5 147.5zM267 373q0 -130 105 -213t290 -83q109 0 208.5 26.5t180.5 97.5l-503 605 q-58 -44 -110 -88.5t-90 -95t-59.5 -112t-21.5 -137.5zM375 1266q0 -89 43 -156.5t114 -146.5l47 -51q59 37 114 77t96.5 83t65.5 93t24 110q0 97 -65.5 157.5t-177.5 60.5q-48 0 -95.5 -14.5t-83.5 -42t-59 -70.5t-23 -100z" />
<glyph unicode="'" horiz-adv-x="402" d="M157 1592h88l-11 -546h-64z" />
<glyph unicode="(" horiz-adv-x="670" d="M176 653q0 176 37 322.5t98.5 266t140 211t162.5 153.5l33 -58q-76 -60 -141.5 -150.5t-114.5 -205t-76.5 -250.5t-27.5 -289q0 -152 27.5 -289t76.5 -251.5t115 -206t141 -149.5l-33 -58q-84 63 -162.5 154.5t-140 210.5t-98.5 266t-37 323z" />
<glyph unicode=")" horiz-adv-x="670" d="M23 -243q76 58 142.5 149.5t115 206t76 250.5t27.5 290q0 153 -27.5 289t-76 250.5t-115 205t-142.5 150.5l35 58q83 -62 161.5 -153.5t140 -211t98.5 -266t37 -322.5t-37 -323t-98.5 -266t-140 -210.5t-161.5 -154.5z" />
<glyph unicode="*" horiz-adv-x="1075" d="M139 956l347 171l-347 171l46 84l329 -214l-24 391h98l-23 -391l323 214l49 -84l-347 -171l347 -171l-49 -86l-321 210l21 -386h-98l24 389l-329 -213z" />
<glyph unicode="+" horiz-adv-x="1263" d="M144 611v91h439v446h100v-446h437v-91h-437v-445h-100v445h-439z" />
<glyph unicode="," horiz-adv-x="499" d="M157 -289l58 451h136l-131 -451h-63z" />
<glyph unicode="-" horiz-adv-x="698" d="M79 609v85h541v-85h-541z" />
<glyph unicode="." horiz-adv-x="499" d="M153 77q0 39 24 67t73 28q48 0 72.5 -28.5t24.5 -66.5q0 -40 -24.5 -67.5t-72.5 -27.5q-49 0 -73 27.5t-24 67.5z" />
<glyph unicode="/" horiz-adv-x="832" d="M35 -93l661 1652h103l-662 -1652h-102z" />
<glyph unicode="0" horiz-adv-x="1263" d="M115 753q0 180 36.5 323t104.5 241.5t163 152t213 53.5q117 0 212 -53.5t163.5 -152t104.5 -242t36 -322.5q0 -181 -36 -324.5t-104.5 -242t-163 -151.5t-212.5 -53t-213 53t-163 151.5t-104.5 242t-36.5 324.5zM227 753q0 -338 105 -512t300 -174q194 0 299.5 174 t105.5 512q0 337 -105.5 510.5t-299.5 173.5q-195 0 -300 -173.5t-105 -510.5z" />
<glyph unicode="1" horiz-adv-x="1263" d="M227 0v95h384v1307l-340 -117v82l370 137h79v-1409h377v-95h-870z" />
<glyph unicode="2" horiz-adv-x="1263" d="M146 0v86l444 448q71 72 136 141.5t114.5 141t80 149.5t30.5 169q0 139 -91.5 218.5t-236.5 79.5q-104 0 -204.5 -29t-168.5 -66l-27 82q64 38 170 70.5t227 32.5q218 0 329 -104.5t111 -287.5q0 -102 -32 -189.5t-90.5 -172t-139 -169t-178.5 -176.5l-340 -325h824v-99 h-958z" />
<glyph unicode="3" horiz-adv-x="1263" d="M157 75l31 82q71 -37 167 -61.5t221 -24.5q204 0 301 90.5t97 247.5q0 153 -96 235.5t-277 82.5h-201v90h201q157 0 244 88t87 224q0 139 -92 221.5t-273 82.5q-104 0 -199 -24.5t-169 -66.5l-27 82q69 39 173 69t222 30q113 0 201.5 -30.5t148 -82.5t90 -123.5 t30.5 -157.5q0 -71 -24.5 -132.5t-66 -106.5t-93.5 -75.5t-108 -39.5q79 -9 141.5 -41t106.5 -82.5t67 -112.5t23 -130q0 -197 -135.5 -312t-371.5 -115q-139 0 -241.5 26.5t-177.5 66.5z" />
<glyph unicode="4" horiz-adv-x="1263" d="M97 305v77l787 1118h88v-1095h181v-100h-181v-305h-111v305h-764zM227 405h639v896z" />
<glyph unicode="5" horiz-adv-x="1263" d="M139 90l31 84q71 -42 178 -72.5t235 -30.5q88 0 163.5 27t130.5 77t87 123t32 165q0 82 -24.5 148.5t-78 114t-138 74t-205.5 26.5h-340v90l61 588h740v-99h-655l-46 -489h243q271 0 412 -123.5t141 -337.5q0 -110 -39.5 -197.5t-109 -149.5t-165.5 -94t-209 -32 q-157 0 -264 33.5t-180 74.5z" />
<glyph unicode="6" horiz-adv-x="1263" d="M144 733q0 385 145.5 587.5t412.5 202.5q97 0 173 -21t130 -51l-22 -71q-122 62 -277 62q-218 0 -328.5 -179.5t-125.5 -520.5q30 40 74.5 79.5t99.5 71.5t121.5 52t144.5 20q210 0 323.5 -127t113.5 -352q0 -100 -31 -191.5t-90 -161t-147 -110.5t-199 -41 q-243 0 -380.5 187t-137.5 564zM252 638q0 -119 30 -225t84.5 -183t130 -122.5t165.5 -45.5q170 0 263 110t93 318q0 80 -17.5 151.5t-55.5 126t-100.5 85.5t-155.5 31q-66 0 -130 -21t-119.5 -55.5t-104 -78.5t-83.5 -91z" />
<glyph unicode="7" horiz-adv-x="1263" d="M164 1405v99h947v-76l-656 -1428h-110l648 1405h-829z" />
<glyph unicode="8" horiz-adv-x="1263" d="M141 384q0 77 25.5 141.5t69.5 115.5t103 84.5t129 47.5q-51 16 -100.5 45.5t-90.5 74t-65 108t-24 149.5t32 155.5t90 118t140 74t182 25.5q99 0 181.5 -25.5t140 -74t90 -118t32.5 -155.5t-25.5 -149.5t-64.5 -108t-88.5 -74t-100.5 -45.5q69 -14 127.5 -47.5 t102.5 -84.5t69.5 -115.5t25.5 -141.5q0 -187 -126 -294.5t-364 -107.5q-239 0 -365 107.5t-126 294.5zM245 389q0 -157 98.5 -242t288.5 -85t288 85t98 242q0 150 -93.5 247t-292.5 97t-293 -97t-94 -247zM292 1139q0 -157 90 -243t250 -86q159 0 249.5 85.5t90.5 243.5 q0 157 -87.5 230t-252.5 73q-164 0 -252 -73t-88 -230z" />
<glyph unicode="9" horiz-adv-x="1263" d="M134 1018q0 100 31.5 191.5t90.5 161t146.5 111t198.5 41.5q243 0 381 -187.5t138 -564.5q0 -385 -136 -587t-421 -202q-106 0 -183 20.5t-130 50.5l21 72q121 -63 287 -63q115 0 198.5 46.5t138 134.5t82.5 218.5t34 300.5q-32 -35 -74.5 -75t-98.5 -72t-122 -54 t-144 -22q-210 0 -324 127t-114 352zM245 1014q0 -82 17.5 -152.5t55.5 -124.5t100.5 -85.5t155.5 -31.5q67 0 130.5 21t119 55.5t104 78.5t83.5 91q0 119 -30 225t-84.5 183t-129.5 122.5t-166 45.5q-169 0 -262.5 -110t-93.5 -318z" />
<glyph unicode=":" horiz-adv-x="545" d="M176 75q0 39 24.5 67t72.5 28q49 0 73.5 -28.5t24.5 -66.5q0 -40 -24.5 -67.5t-73.5 -27.5q-48 0 -72.5 27.5t-24.5 67.5zM176 1007q0 39 24.5 67t72.5 28q49 0 73.5 -28t24.5 -67q0 -40 -24.5 -67.5t-73.5 -27.5q-48 0 -72.5 27.5t-24.5 67.5z" />
<glyph unicode=";" horiz-adv-x="545" d="M172 -289l57 451h137l-132 -451h-62zM176 1007q0 39 24.5 67t72.5 28q49 0 73.5 -28t24.5 -67q0 -40 -24.5 -67.5t-73.5 -27.5q-48 0 -72.5 27.5t-24.5 67.5z" />
<glyph unicode="&#x3c;" horiz-adv-x="1263" d="M139 641v70l939 534v-106l-824 -463l824 -464v-106z" />
<glyph unicode="=" horiz-adv-x="1263" d="M172 402v91h921v-91h-921zM172 854v91h921v-91h-921z" />
<glyph unicode="&#x3e;" horiz-adv-x="1263" d="M185 106v106l824 464l-824 463v106l939 -534v-70z" />
<glyph unicode="?" horiz-adv-x="1091" d="M120 1464q66 40 172 77.5t227 37.5q212 0 323.5 -101t111.5 -279q0 -81 -30 -147.5t-75.5 -124t-98 -110.5t-97 -106t-75 -110t-30.5 -124q0 -58 19 -106h-99q-11 20 -19.5 50t-8.5 63q0 71 29.5 132.5t75 115.5t97.5 106t97 108t75.5 117t30.5 136q0 58 -18.5 110 t-57 91.5t-100.5 63.5t-148 24q-104 0 -206.5 -32t-166.5 -74zM421 75q0 39 24.5 67t73.5 28q48 0 72.5 -28.5t24.5 -66.5q0 -40 -24.5 -67.5t-72.5 -27.5q-49 0 -73.5 27.5t-24.5 67.5z" />
<glyph unicode="@" horiz-adv-x="1878" d="M148 757q0 164 53 313t156.5 264t255 182t350.5 67q181 0 324.5 -57t241.5 -157.5t150 -236.5t52 -297q0 -143 -26.5 -242.5t-69.5 -163t-96 -93t-106 -29.5t-91.5 22t-64 59.5t-38.5 84t-13 94.5q-35 -115 -125 -187.5t-207 -72.5q-176 0 -277 121.5t-101 333.5 q0 99 27 185.5t81 151.5t139 101t200 36q97 0 180 -22t151 -52v-570q0 -86 32 -149t105 -63q35 0 75 20.5t73.5 71.5t56.5 138.5t23 224.5q0 125 -39 249t-122.5 221t-215.5 159t-317 62q-183 0 -323 -62t-235 -166t-143.5 -244t-48.5 -297q0 -181 54.5 -316.5t148.5 -225.5 t222 -134t279 -44q95 0 186.5 22t171.5 69q11 -18 16 -30t12 -29q-71 -44 -171 -68t-220 -24q-166 0 -306 49t-242.5 146t-160 242.5t-57.5 342.5zM616 762q0 -93 23 -161.5t61 -113.5t87.5 -67t102.5 -22q67 0 123 27.5t96.5 75t62.5 109t22 128.5v371q-41 15 -106 26 t-128 11q-185 0 -264.5 -103.5t-79.5 -280.5z" />
<glyph unicode="A" horiz-adv-x="1404" d="M58 0l592 1559h105l592 -1559h-111l-169 461h-729l-168 -461h-112zM375 553h654l-214 562l-111 329h-6l-113 -333z" />
<glyph unicode="B" horiz-adv-x="1409" d="M203 0v1559h556q218 0 343.5 -100.5t125.5 -285.5q0 -69 -21.5 -129.5t-58.5 -107t-87 -77.5t-103 -44q67 -7 128.5 -34.5t109 -76.5t75 -117t27.5 -154q0 -95 -32 -174.5t-98 -137t-166.5 -89.5t-239.5 -32h-559zM312 95h447q225 0 328 87t103 251q0 92 -30.5 154.5 t-87 101t-136 54.5t-179.5 16h-445v-664zM312 854h450q154 0 256 80t102 239q0 148 -95 219.5t-266 71.5h-447v-610z" />
<glyph unicode="C" horiz-adv-x="1302" d="M115 780q0 180 47.5 327t139 252t228.5 162.5t315 57.5q109 0 197.5 -24.5t154.5 -57.5l-26 -90q-67 30 -149 51t-177 21q-294 0 -457 -178.5t-163 -520.5q0 -166 42.5 -296t121.5 -219t191 -134t251 -45q110 0 197 24t155 56l27 -91q-39 -21 -79.5 -38t-85.5 -28 t-97 -17t-117 -6q-184 0 -317.5 56.5t-223 160.5t-132.5 250t-43 327z" />
<glyph unicode="D" horiz-adv-x="1475" d="M203 0v1559h382q382 0 579 -197.5t197 -579.5q0 -384 -197 -583t-579 -199h-382zM312 99h273q160 0 284 40t209.5 123t129.5 212t44 308q0 358 -173.5 518t-493.5 160h-273v-1361z" />
<glyph unicode="E" horiz-adv-x="1244" d="M203 0v1559h912v-97h-803v-610h752v-97h-752v-660h817v-95h-926z" />
<glyph unicode="F" horiz-adv-x="1197" d="M203 0v1559h894v-99h-785v-632h734v-101h-734v-727h-109z" />
<glyph unicode="G" horiz-adv-x="1471" d="M115 745q0 208 52.5 364.5t146 261t225.5 156.5t292 52q139 0 239.5 -29t167.5 -62l-28 -90q-66 35 -160 58t-205 23q-139 0 -253.5 -43t-195.5 -133.5t-126 -229t-45 -331.5q0 -145 36.5 -266.5t105 -209t167 -136.5t223.5 -49q84 0 162.5 34.5t139.5 96t97 147 t36 187.5v194h-331v88h435v-828h-77l-27 257q-60 -116 -174.5 -195.5t-275.5 -79.5q-145 0 -260.5 56.5t-198 157t-125.5 240.5t-43 309z" />
<glyph unicode="H" horiz-adv-x="1499" d="M203 0v1559h109v-707h876v707h108v-1559h-108v753h-876v-753h-109z" />
<glyph unicode="I" horiz-adv-x="524" d="M208 0v1559h110v-1559h-110z" />
<glyph unicode="J" horiz-adv-x="864" d="M33 46l29 91q49 -29 112.5 -42.5t130.5 -13.5q120 0 187.5 77.5t67.5 269.5v1131h109v-1131q0 -229 -96 -337.5t-266 -108.5q-76 0 -146.5 16t-127.5 48z" />
<glyph unicode="K" horiz-adv-x="1341" d="M203 0v1559h109v-1559h-109zM479 799v60l667 700h131l-694 -728l722 -831h-130z" />
<glyph unicode="L" horiz-adv-x="1166" d="M203 0v1559h109v-1460h776v-99h-885z" />
<glyph unicode="M" horiz-adv-x="1771" d="M203 0v1559h112l471 -980q33 -65 57.5 -124t40.5 -101h4q16 42 41 101t56 124l473 980h112v-1559h-108v1122q0 31 1 67.5t3.5 75t5.5 75.5t7 67h-4q-7 -20 -19 -50t-24 -62t-24 -60.5t-21 -49.5l-448 -916h-106l-447 916q-9 21 -22 49.5t-24 60.5t-23 62t-19 50h-4 q2 -31 5.5 -67.5t5.5 -75t3.5 -75t1.5 -67.5v-1122h-107z" />
<glyph unicode="N" horiz-adv-x="1517" d="M203 0v1559h117l760 -1193q42 -64 77 -120t60 -102h5q-10 66 -13 138t-3 155v1122h108v-1559h-115l-762 1194q-41 65 -75.5 120.5t-60.5 101.5h-5q9 -67 12.5 -138.5t3.5 -155.5v-1122h-109z" />
<glyph unicode="O" horiz-adv-x="1559" d="M115 780q0 171 42 318t125.5 253.5t207.5 167t290 60.5t290 -60.5t207.5 -167t125 -253.5t41.5 -318q0 -172 -41.5 -318.5t-125 -253t-207.5 -166.5t-290 -60t-290 60t-207.5 166.5t-125.5 253.5t-42 318zM225 780q0 -153 33.5 -282.5t103 -223t173 -145.5t245.5 -52 q141 0 245 52t173.5 145.5t103.5 223t34 282.5q0 152 -34 281t-103.5 222.5t-173.5 147t-245 53.5q-142 0 -245.5 -53.5t-173 -147t-103 -222.5t-33.5 -281z" />
<glyph unicode="P" horiz-adv-x="1267" d="M203 0v1559h475q118 0 210.5 -34.5t156.5 -96t97 -146.5t33 -189q0 -111 -38 -200.5t-105 -149.5t-162 -92.5t-208 -32.5h-350v-618h-109zM312 715h350q190 0 297.5 99.5t107.5 278.5q0 174 -98.5 271.5t-290.5 97.5h-366v-747z" />
<glyph unicode="Q" horiz-adv-x="1559" d="M115 780q0 171 42 318t125.5 253.5t207.5 167t290 60.5t290 -60.5t207.5 -167t125 -253.5t41.5 -318q0 -160 -36 -296.5t-106 -241.5t-177 -171t-248 -82q-16 -97 -68 -159t-115 -91h528v-95h-791v93h53q55 0 103.5 19t85 53t59.5 79t30 96q-162 2 -283 64.5t-201.5 168 t-121.5 250t-41 313.5zM225 780q0 -153 33.5 -282.5t103 -223t173 -145.5t245.5 -52q141 0 245 52t173.5 145.5t103.5 223t34 282.5q0 152 -34 281t-103.5 222.5t-173.5 147t-245 53.5q-142 0 -245.5 -53.5t-173 -147t-103 -222.5t-33.5 -281z" />
<glyph unicode="R" horiz-adv-x="1351" d="M203 0v1559h545q118 0 210.5 -32t155.5 -91t97 -142.5t34 -182.5q0 -188 -108 -302.5t-287 -144.5l404 -664h-119l-399 655h-5h-419v-655h-109zM312 753h419q190 0 298 94t108 264q0 164 -99 257.5t-290 93.5h-436v-709z" />
<glyph unicode="S" horiz-adv-x="1207" d="M157 1194q0 80 25.5 150t82.5 122t145.5 82.5t214.5 30.5q120 0 218.5 -28t165.5 -63l-30 -81q-72 35 -166.5 56t-185.5 21q-194 0 -280 -81.5t-86 -214.5q0 -77 27 -129t75.5 -90.5t115.5 -67.5t150 -56q91 -30 175 -62.5t149 -80t104.5 -117t39.5 -176.5 q0 -104 -36 -183.5t-101.5 -134t-159 -82t-206.5 -27.5q-163 0 -264 29t-171 68l33 91q79 -40 174 -66.5t228 -26.5q86 0 160 19t126 60t82.5 103.5t30.5 149.5q0 90 -32.5 146t-88 92t-127.5 59t-148 49q-79 26 -158 59.5t-141 83t-101.5 122.5t-39.5 174z" />
<glyph unicode="T" horiz-adv-x="1163" d="M37 1460v99h1090v-99l-491 2v-1462h-108v1462z" />
<glyph unicode="U" horiz-adv-x="1508" d="M197 614v945h108v-948q0 -280 120.5 -405t329.5 -125q208 0 328 125t120 405v948h109v-945q0 -164 -40 -283t-113 -197.5t-176 -115t-228 -36.5q-126 0 -228.5 36.5t-175.5 115t-113.5 197t-40.5 283.5z" />
<glyph unicode="V" horiz-adv-x="1404" d="M55 1559h111l417 -1104l115 -344h6l113 340l421 1108h111l-592 -1559h-110z" />
<glyph unicode="W" horiz-adv-x="2017" d="M79 1559h111l269 -1098q22 -97 38.5 -187.5t27.5 -162.5h5q11 74 31 164.5t48 185.5l328 1098h143l329 -1098q28 -95 48 -185.5t31 -164.5h5q11 71 27.5 162t38.5 188l269 1098h111l-382 -1559h-120l-363 1212q-19 63 -35 126.5t-28 105.5h-4q-11 -42 -27.5 -105.5 t-34.5 -126.5l-364 -1212h-120z" />
<glyph unicode="X" horiz-adv-x="1365" d="M75 0l543 810l-503 749h123l445 -669l444 669h123l-502 -749l544 -810h-121l-488 731l-489 -731h-119z" />
<glyph unicode="Y" horiz-adv-x="1265" d="M42 1559h115l475 -814h2l475 814h115l-537 -912v-647h-108v647z" />
<glyph unicode="Z" horiz-adv-x="1248" d="M111 0v81l882 1381h-821v97h950v-82l-879 -1380h896v-97h-1028z" />
<glyph unicode="[" horiz-adv-x="603" d="M203 -273v1856h336v-86h-236v-1685h236v-85h-336z" />
<glyph unicode="\" horiz-adv-x="832" d="M35 1559h102l662 -1652h-103z" />
<glyph unicode="]" horiz-adv-x="603" d="M64 -188h237v1685h-237v86h336v-1856h-336v85z" />
<glyph unicode="^" horiz-adv-x="1184" d="M106 638l438 921h97l437 -921h-102l-384 829l-384 -829h-102z" />
<glyph unicode="_" horiz-adv-x="943" d="M0 -170h945v-80h-945v80z" />
<glyph unicode="`" horiz-adv-x="647" d="M0 1509l62 83l313 -278l-30 -42z" />
<glyph unicode="a" horiz-adv-x="1151" d="M97 305q0 181 125 271.5t368 90.5h273v78q0 166 -77 233.5t-223 67.5q-113 0 -198 -23t-153 -60l-24 79q62 37 159 66t216 29q203 0 303.5 -106t100.5 -286v-745h-77l-27 220q-62 -113 -166.5 -175.5t-247.5 -62.5q-75 0 -139.5 20.5t-112 62t-74 102t-26.5 138.5z M199 305q0 -60 19.5 -104t54 -73t81 -43t97.5 -14q99 0 176 34t129 88t79.5 121.5t27.5 136.5v125h-273q-208 0 -299.5 -65t-91.5 -206z" />
<glyph unicode="b" horiz-adv-x="1270" d="M190 0v1559h106v-661q28 42 68.5 84.5t94 76.5t118 56t141.5 22q92 0 172 -36.5t139 -108t92.5 -179t33.5 -250.5q0 -155 -36 -265t-98.5 -181t-146 -103t-180.5 -32q-141 0 -239.5 64.5t-158.5 173.5l-27 -220h-79zM296 490q0 -76 24.5 -149.5t73 -133t121.5 -95 t170 -35.5q66 0 132.5 25.5t117 83t82.5 150t32 227.5q0 127 -26.5 217t-72 147.5t-108 86t-131.5 28.5q-126 0 -231 -67.5t-184 -192.5v-292z" />
<glyph unicode="c" horiz-adv-x="1036" d="M111 560q0 126 32.5 231t98 182.5t163 120.5t227.5 43q86 0 157.5 -16.5t135.5 -44.5l-24 -80q-53 26 -120.5 39.5t-148.5 13.5q-107 0 -185.5 -36.5t-129 -100.5t-75 -154.5t-24.5 -197.5q0 -106 25.5 -196.5t77.5 -155t132.5 -101t191.5 -36.5q75 0 143.5 17.5 t127.5 43.5l29 -81q-60 -31 -138 -49t-166 -18q-133 0 -232 42.5t-164.5 120.5t-99.5 183t-34 230z" />
<glyph unicode="d" horiz-adv-x="1270" d="M115 563q0 136 37.5 242.5t101.5 180.5t147 112.5t178 38.5q76 0 138.5 -22t112 -57t85.5 -77t59 -83v661h106v-1559h-78l-28 220q-60 -108 -156 -173t-228 -65q-102 0 -188.5 32t-150 103t-100 180.5t-36.5 265.5zM223 563q0 -135 31 -227.5t83 -150t120 -83t140 -25.5 q92 0 163 35.5t118 95t71.5 133.5t24.5 149v292q-69 117 -166 188.5t-218 71.5q-75 0 -140.5 -29.5t-116.5 -88t-80.5 -149t-29.5 -212.5z" />
<glyph unicode="e" horiz-adv-x="1137" d="M111 560q0 126 31.5 231t93.5 182.5t156 120.5t219 43q204 0 310 -116t106 -327q0 -44 -8 -97t-19 -87h-785q9 -195 113.5 -317t314.5 -122q88 0 163 23.5t133 55.5l28 -81q-57 -35 -142 -60t-187 -25q-132 0 -231.5 42.5t-165 120.5t-98 183t-32.5 230zM218 590h703 q4 20 6.5 49.5t2.5 54.5q0 183 -77.5 270t-241.5 87q-104 0 -178.5 -35t-120 -95t-69 -146t-25.5 -185z" />
<glyph unicode="f" horiz-adv-x="753" d="M42 1029v89h194v70q0 178 72 284.5t245 106.5q59 0 113 -13t93 -34l-23 -77q-35 16 -78.5 24.5t-83.5 8.5q-139 0 -186.5 -78.5t-47.5 -224.5v-67h345v-89h-345v-1029h-104v1029h-194z" />
<glyph unicode="g" horiz-adv-x="1292" d="M115 563q0 136 37.5 242.5t101.5 180.5t147 112.5t178 38.5q76 0 138.5 -22t112 -57t85.5 -77t59 -83l28 220h78v-1067q0 -259 -126 -386.5t-349 -127.5q-118 0 -217 30.5t-163 64.5l27 86q64 -36 155.5 -61t201.5 -25q84 0 150.5 22t114 71.5t74 131t26.5 196.5v167 q-60 -108 -156 -173t-228 -65q-102 0 -188.5 32t-150 103t-100 180.5t-36.5 265.5zM223 563q0 -135 31 -227.5t83 -150t120 -83t140 -25.5q92 0 163 35.5t118 95t71.5 133.5t24.5 149v292q-69 117 -166 188.5t-218 71.5q-75 0 -140.5 -29.5t-116.5 -88t-80.5 -149 t-29.5 -212.5z" />
<glyph unicode="h" horiz-adv-x="1290" d="M190 0v1559h106v-661q35 44 80 86.5t101.5 76.5t121.5 55t137 21q176 0 273 -109t97 -310v-718h-106v718q0 154 -74 239t-199 85q-67 0 -130 -22t-119.5 -59.5t-102.5 -83.5t-79 -95v-782h-106z" />
<glyph unicode="i" horiz-adv-x="499" d="M157 1490q0 38 24.5 63.5t68.5 25.5t68 -25.5t24 -63.5q0 -37 -24 -62.5t-68 -25.5t-68.5 25.5t-24.5 62.5zM197 0v1118h106v-1118h-106z" />
<glyph unicode="j" horiz-adv-x="499" d="M-104 -426l25 79q26 -11 56 -19.5t69 -8.5q93 0 122 62.5t29 182.5v1248h106v-1248q0 -93 -18 -156t-52 -102.5t-79.5 -57t-98.5 -17.5q-50 0 -92 11.5t-67 25.5zM157 1490q0 38 24.5 63.5t68.5 25.5t68 -25.5t24 -63.5q0 -37 -24 -62.5t-68 -25.5t-68.5 25.5t-24.5 62.5 z" />
<glyph unicode="k" horiz-adv-x="1102" d="M185 0v1559h107v-1559h-107zM424 594v64l472 460h129l-502 -489l539 -629h-123z" />
<glyph unicode="l" horiz-adv-x="499" d="M197 0v1559h106v-1559h-106z" />
<glyph unicode="m" horiz-adv-x="1832" d="M190 0v1118h79l27 -220q26 42 65 84.5t88.5 77.5t108 56t122.5 21q126 0 191.5 -68.5t88.5 -187.5q60 107 166 181.5t230 74.5q155 0 223.5 -107t68.5 -285v-745h-107v745q0 136 -39.5 216.5t-159.5 80.5q-106 0 -205.5 -70.5t-166.5 -187.5q0 -11 1 -19t1 -20v-745h-106 v745q0 136 -40 216.5t-159 80.5q-58 0 -111.5 -21t-101 -57t-87.5 -83.5t-71 -98.5v-782h-106z" />
<glyph unicode="n" horiz-adv-x="1285" d="M190 0v1118h79l27 -220q35 44 80 86.5t100.5 76.5t120.5 55t136 21q177 0 273 -109t96 -310v-718h-106v718q0 154 -73 239t-199 85q-66 0 -129 -22t-118.5 -59.5t-101.5 -83.5t-79 -95v-782h-106z" />
<glyph unicode="o" horiz-adv-x="1226" d="M111 560q0 126 31.5 231t93.5 182.5t156 120.5t222 43q127 0 220.5 -43t156 -120.5t93.5 -183t31 -230.5t-31 -230t-93.5 -183t-156.5 -120.5t-220 -42.5q-128 0 -222 42.5t-156 120.5t-93.5 183t-31.5 230zM218 560q0 -106 22.5 -196.5t70 -155t123.5 -101t180 -36.5 t179 36.5t122.5 101t70.5 154.5t23 197t-23 197.5t-70.5 154.5t-122.5 100.5t-179 36.5t-180 -36.5t-123.5 -100.5t-70 -154.5t-22.5 -197.5z" />
<glyph unicode="p" horiz-adv-x="1270" d="M190 -442v1560h79l27 -220q28 42 68.5 84.5t94 76.5t118 56t141.5 22q92 0 172 -36.5t139 -108t92.5 -179t33.5 -250.5q0 -155 -36 -265t-98.5 -181t-147 -103t-181.5 -32q-139 0 -237.5 64.5t-158.5 173.5v-662h-106zM296 490q0 -76 24.5 -149.5t73 -133t121.5 -95 t170 -35.5q66 0 132.5 25.5t117 83t82.5 150t32 227.5q0 127 -26.5 217t-72 147.5t-108 86t-131.5 28.5q-126 0 -231 -67.5t-184 -192.5v-292z" />
<glyph unicode="q" horiz-adv-x="1292" d="M115 563q0 136 37.5 242.5t101.5 180.5t147 112.5t178 38.5q76 0 138.5 -22t112 -57t85.5 -77t59 -83l28 220h78v-1560h-106v662q-60 -108 -156 -173t-228 -65q-102 0 -188.5 32t-150 103t-100 180.5t-36.5 265.5zM223 563q0 -135 31 -227.5t83 -150t120 -83t140 -25.5 q92 0 163 35.5t118 95t71.5 133.5t24.5 149v292q-69 117 -166 188.5t-218 71.5q-75 0 -140.5 -29.5t-116.5 -88t-80.5 -149t-29.5 -212.5z" />
<glyph unicode="r" horiz-adv-x="837" d="M190 0v1118h79l27 -220q28 49 64 91.5t80 75t94.5 52.5t106.5 20q48 0 86.5 -11t63.5 -24l-27 -102q-23 14 -54.5 23t-80.5 9q-110 0 -191.5 -72t-141.5 -178v-782h-106z" />
<glyph unicode="s" horiz-adv-x="976" d="M120 861q0 69 28 121t78 87t116.5 51.5t143.5 16.5q99 0 183 -21t148 -49l-28 -86q-60 28 -138.5 46.5t-164.5 18.5q-126 0 -194.5 -44t-68.5 -132q0 -102 75 -156t186 -85q183 -53 278 -131.5t95 -217.5t-97.5 -218.5t-293.5 -79.5q-98 0 -190.5 22t-152.5 49l27 84 q56 -26 141.5 -46t174.5 -20q148 0 218.5 56t70.5 153q0 56 -23 95.5t-65 69.5t-98.5 50.5t-122.5 41.5q-69 20 -128 47t-102.5 65t-69.5 89t-26 123z" />
<glyph unicode="t" horiz-adv-x="777" d="M42 1029v89h192l37 319h69v-319h354v-89h-354v-740q0 -117 37.5 -164.5t129.5 -47.5q53 0 100.5 15.5t79.5 41.5l31 -76q-40 -29 -94 -50.5t-129 -21.5q-130 0 -194.5 69.5t-64.5 231.5v742h-194z" />
<glyph unicode="u" horiz-adv-x="1263" d="M185 400v718h107v-718q0 -155 66 -239t209 -84q65 0 127.5 23t114.5 58.5t92.5 82t65.5 95.5v782h107v-1118h-78l-29 220q-20 -41 -59.5 -83t-91.5 -76.5t-118 -56.5t-140 -22q-181 0 -277 108.5t-96 309.5z" />
<glyph unicode="v" horiz-adv-x="1027" d="M46 1118h111l229 -630l126 -375h4l125 375l229 630h111l-414 -1118h-106z" />
<glyph unicode="w" horiz-adv-x="1531" d="M69 1118h101l166 -652q11 -49 21.5 -98.5t18.5 -98.5t12.5 -90.5t9.5 -72.5h4q14 79 35.5 163.5t43.5 154.5l223 694h124l223 -694q23 -69 43.5 -154t34.5 -164h6q2 31 7.5 72.5t13.5 90.5t18.5 98.5t22.5 98.5l166 652h99l-285 -1118h-84l-274 848q-13 46 -27.5 95.5 t-23.5 93.5h-4q-9 -44 -23 -93.5t-28 -95.5l-273 -848h-86z" />
<glyph unicode="x" horiz-adv-x="1087" d="M55 0l433 590l-386 528h118l324 -454l324 454h117l-388 -528l435 -590h-118l-370 516l-370 -516h-119z" />
<glyph unicode="y" horiz-adv-x="1283" d="M185 419v699h107v-699q0 -155 66 -239.5t209 -84.5q65 0 126.5 23t113.5 58.5t91 82t65 95.5v764h106v-1067q0 -514 -440 -514q-125 0 -229 33.5t-164 73.5l27 85q60 -37 158 -67t208 -30q82 0 144 22t104 71.5t64 131t22 196.5v185q-21 -41 -59 -84t-90 -76.5 t-117 -55.5t-139 -22q-181 0 -277 109t-96 310z" />
<glyph unicode="z" horiz-adv-x="1020" d="M97 0v62l671 967h-618v89h751v-63l-672 -967h690v-88h-822z" />
<glyph unicode="{" horiz-adv-x="665" d="M120 607v97q57 2 92 15.5t54 38t24.5 60.5t5.5 83q0 104 -18.5 197.5t-18.5 190.5q0 151 75 222.5t210 71.5h48v-74h-48q-109 0 -148.5 -62.5t-39.5 -166.5q0 -53 7.5 -102t14 -96.5t13.5 -93.5t7 -98q0 -81 -37 -147.5t-141 -87.5q104 -20 141 -88t37 -148q0 -51 -7 -97 t-13.5 -93.5t-14 -96t-7.5 -101.5q0 -104 39.5 -167t148.5 -63h48v-74h-48q-135 0 -210 71.5t-75 221.5q0 98 18.5 191.5t18.5 197.5q0 46 -5.5 82.5t-24.5 60.5t-53 38.5t-93 16.5z" />
<glyph unicode="|" horiz-adv-x="561" d="M232 -463v2254h99v-2254h-99z" />
<glyph unicode="}" horiz-adv-x="665" d="M75 -199h48q109 0 148 62t39 168q0 53 -7 101.5t-14 96t-13.5 93.5t-6.5 97q0 82 36.5 148.5t140.5 87.5q-104 21 -140.5 88t-36.5 147q0 51 6.5 97.5t13.5 94t14 96t7 102.5q0 104 -39 166.5t-148 62.5h-48v74h48q135 0 209.5 -71.5t74.5 -222.5q0 -97 -18 -190.5 t-18 -197.5q0 -47 5.5 -83t24 -60.5t53 -38t92.5 -15.5v-97q-58 -2 -92.5 -16.5t-53 -38.5t-24 -60.5t-5.5 -82.5q0 -104 18 -197.5t18 -191.5q0 -150 -75 -221.5t-209 -71.5h-48v74z" />
<glyph unicode="~" horiz-adv-x="1202" d="M115 713q21 31 51.5 64t68.5 59.5t79.5 44t87.5 17.5q75 0 123.5 -22t90.5 -48.5t82 -48.5t99 -22q88 0 146.5 42.5t98.5 98.5l46 -46q-20 -33 -50.5 -65t-69 -58.5t-81 -44t-86.5 -17.5q-77 0 -126.5 22t-90 48.5t-81 48.5t-96.5 22q-88 0 -147 -43t-98 -98z" />
<glyph horiz-adv-x="1157" />
<glyph unicode="&#xa0;" />
<glyph unicode="&#xa1;" horiz-adv-x="524" d="M164 1042q0 39 24 67t73 28t73 -28t24 -67q0 -40 -24 -67.5t-73 -27.5t-73 27.5t-24 67.5zM206 -90l28 773h55l26 -773v-352h-109v352z" />
<glyph unicode="&#xa2;" horiz-adv-x="1263" d="M203 560q0 118 32 219.5t91.5 178t150 123t208.5 54.5v216h81v-214q75 -5 142.5 -20t128.5 -41l-26 -80q-48 20 -111 34t-134 19v-978q67 2 136.5 18.5t124.5 42.5l28 -81q-55 -28 -131 -45t-158 -22v-216h-81v218q-118 9 -208.5 55.5t-152 123t-91.5 177t-30 218.5z M310 560q0 -99 22 -183.5t68 -148.5t117 -104t168 -49v971q-190 -18 -282.5 -150t-92.5 -336z" />
<glyph unicode="&#xa3;" horiz-adv-x="1263" d="M194 0v99h93q71 21 118.5 64t77 97.5t40.5 115.5t11 121q0 62 -23 121.5t-56 119.5h-237v79h194q-39 71 -69.5 148t-30.5 170q0 90 37 161t100 121t145 78t174 28q113 0 194.5 -25.5t134.5 -57.5l-26 -79q-60 37 -125 56.5t-169 19.5q-92 0 -159.5 -30t-109.5 -77 t-63 -105.5t-21 -115.5q0 -82 30 -153.5t69 -138.5h400v-79h-358q31 -55 50 -114t19 -127q0 -139 -57.5 -236t-148.5 -162h757v-99h-991z" />
<glyph unicode="&#xa4;" horiz-adv-x="1314" d="M203 1150l64 65l133 -132q62 48 126 70t132 22q69 0 132.5 -23t128.5 -69l130 129l60 -62l-128 -130q46 -66 69.5 -127.5t23.5 -133.5q0 -64 -23.5 -130t-69.5 -127l130 -129l-62 -70l-128 132q-67 -42 -128.5 -65t-132.5 -23t-134 23t-126 67l-131 -134l-61 68h-2 l130 131q-47 60 -69 121.5t-22 135.5q0 69 22 133t69 131zM333 759q0 -66 25.5 -125.5t69.5 -103.5t103 -68.5t127 -24.5q64 0 124 24.5t106.5 68.5t73 103.5t26.5 125.5q0 69 -26.5 128.5t-73 103t-106.5 69.5t-124 26q-67 0 -126.5 -26t-103.5 -69.5t-69.5 -103 t-25.5 -128.5z" />
<glyph unicode="&#xa5;" horiz-adv-x="1263" d="M88 1504h115l429 -759h2l428 759h115l-402 -701h287v-79h-331l-44 -77v-135h375v-79h-375v-433h-108v433h-376v79h376v135l-45 77h-331v79h285z" />
<glyph unicode="&#xa6;" horiz-adv-x="545" d="M220 -405v812h107v-812h-107zM220 748v811h107v-811h-107z" />
<glyph unicode="&#xa7;" horiz-adv-x="1263" d="M190 786q0 84 41.5 150t108.5 101q-60 58 -83 111t-23 127q0 132 113.5 218t310.5 86q83 0 161.5 -16.5t145.5 -44.5l-26 -78q-60 30 -120 43.5t-134 13.5q-186 0 -269 -60t-83 -162q0 -60 25.5 -102t68.5 -73t99.5 -55.5t118.5 -44.5t135.5 -49.5t136 -71.5t104 -97 t41.5 -129q0 -81 -48.5 -144t-134.5 -92q79 -46 111.5 -119t32.5 -139q0 -74 -34.5 -129.5t-93 -92t-133.5 -56.5t-153 -20q-157 0 -247.5 23t-160.5 56l19 71q42 -16 81 -29t83 -22t98 -13.5t123 -4.5q50 0 108 12.5t104 39t77 68.5t31 102q0 57 -28.5 100t-75 76t-103 55 t-111.5 40q-56 14 -128 39t-136.5 67t-108.5 102.5t-44 142.5zM289 786q0 -64 37.5 -108t88.5 -74t104 -47.5t86 -26.5q57 -18 90.5 -29t52 -17.5t28.5 -11t23 -11.5q44 14 80 38q33 21 58.5 56t25.5 86q0 97 -99.5 166.5t-254.5 113.5q-81 23 -124 40.5t-73 36.5 q-37 -23 -63 -53q-22 -26 -41 -65.5t-19 -93.5z" />
<glyph unicode="&#xa8;" horiz-adv-x="647" d="M18 1444q0 33 23 57.5t63 24.5t63 -24.5t23 -57.5t-23 -57t-63 -24t-63 24t-23 57zM459 1444q0 33 22.5 57.5t62.5 24.5q39 0 62 -24.5t23 -57.5t-23 -57t-62 -24q-40 0 -62.5 24t-22.5 57z" />
<glyph unicode="&#xa9;" horiz-adv-x="1581" d="M93 780q0 150 55 282t150 229.5t222 154t271 56.5q141 0 269 -56.5t224 -154t151 -229.5t55 -282q0 -151 -55 -282.5t-151 -228.5t-224 -154t-269 -57q-144 0 -271 57t-222 154t-150 228.5t-55 282.5zM166 780q0 -137 47.5 -257.5t131 -209t198.5 -141t248 -52.5 q134 0 249 52.5t198 141t130.5 209t47.5 257.5q0 136 -47.5 255.5t-130.5 208.5t-198 141t-249 52t-248.5 -52t-198 -141t-131 -208.5t-47.5 -255.5zM444 777q0 86 22 160t69.5 128.5t119.5 86t173 31.5q60 0 110 -12t99 -34l-23 -61q-42 18 -89.5 27.5t-93.5 9.5 q-77 0 -132.5 -25.5t-91 -70.5t-53 -106t-17.5 -134q0 -71 17.5 -132.5t53 -106.5t90.5 -70.5t130 -25.5q47 0 96.5 9.5t95.5 29.5l22 -60q-49 -22 -103.5 -35t-114.5 -13q-100 0 -171.5 31t-118 85.5t-68.5 128.5t-22 159z" />
<glyph unicode="&#xaa;" horiz-adv-x="777" d="M42 916q0 139 93.5 204t255.5 65h197v47q0 106 -61 157t-161 51q-67 0 -127 -16.5t-111 -41.5l-29 76q49 26 121 47t160 21q152 0 224 -80.5t72 -217.5v-534h-69l-26 154q-56 -75 -119.5 -122.5t-167.5 -47.5q-109 0 -180.5 60.5t-71.5 177.5zM139 916q0 -68 47.5 -110 t120.5 -42q63 0 115.5 23t89 60t56.5 85.5t20 96.5v82h-197q-123 0 -187.5 -51t-64.5 -144z" />
<glyph unicode="&#xab;" horiz-adv-x="978" d="M93 560l307 412h99l-300 -412l300 -412h-99zM466 560l307 412h99l-300 -412l300 -412h-99z" />
<glyph unicode="&#xac;" horiz-adv-x="1117" d="M93 750v92h909v-527h-104v435h-805z" />
<glyph unicode="&#xad;" horiz-adv-x="652" d="M23 528v106h606v-106h-606z" />
<glyph unicode="&#xae;" horiz-adv-x="1214" d="M93 1069q0 106 36.5 200t105 163.5t163.5 110t211 40.5q115 0 210 -40.5t162.5 -110t104 -163.5t36.5 -200q0 -109 -36.5 -202.5t-104 -163t-162.5 -110t-210 -40.5t-210.5 40.5t-164 110t-105 163t-36.5 202.5zM159 1069q0 -95 33 -179t91.5 -147t141 -99.5t184.5 -36.5 q100 0 183 36.5t142 99.5t91.5 147t32.5 179t-32.5 178.5t-91.5 145.5t-142 99.5t-183 37.5q-102 0 -184.5 -37.5t-141 -99.5t-91.5 -145.5t-33 -178.5zM435 780v562h208q104 0 149 -48t45 -117q0 -66 -34.5 -109t-106.5 -57l132 -231h-66l-135 229h-125v-229h-67zM502 1064 h136q133 0 133 113q0 54 -30 81t-100 27h-139v-221z" />
<glyph unicode="&#xaf;" horiz-adv-x="647" d="M31 1336v80h587v-80h-587z" />
<glyph unicode="&#xb0;" horiz-adv-x="797" d="M102 1289q0 60 22 113t62.5 94t95 64t116.5 23q64 0 119 -23t94 -64t62 -94t23 -113t-23 -114.5t-62 -94.5t-93.5 -63.5t-119.5 -23.5q-62 0 -116.5 23.5t-95 63.5t-62.5 94.5t-22 114.5zM162 1289q0 -48 17.5 -91t48.5 -76.5t75 -53t95 -19.5t95 19.5t76 53t49.5 76.5 t17.5 91q0 47 -17.5 89t-49.5 76t-76 54t-95 20t-95 -20t-75 -54t-48.5 -76t-17.5 -89z" />
<glyph unicode="&#xb1;" horiz-adv-x="1263" d="M144 0v71h976v-71h-976zM144 620v91h439v437h100v-437h437v-91h-437v-435h-100v435h-439z" />
<glyph unicode="&#xb2;" horiz-adv-x="687" d="M64 694v70l228 232q37 37 71.5 75t62 77.5t44 80.5t16.5 85q0 126 -155 126q-53 0 -109 -16.5t-94 -39.5l-29 76q42 23 105 43t136 20q118 0 179.5 -53.5t61.5 -155.5q0 -53 -21 -101.5t-53 -95t-70.5 -88t-76.5 -78.5l-175 -171h420v-86h-541z" />
<glyph unicode="&#xb3;" horiz-adv-x="663" d="M64 740l22 68q39 -23 92.5 -36t106.5 -13q101 0 147.5 51t46.5 118q0 71 -48.5 115.5t-132.5 44.5h-88v74h88q67 0 114 38t47 119q0 53 -39.5 91.5t-134.5 38.5q-60 0 -105.5 -11.5t-84.5 -30.5l-24 68q44 20 99 34t117 14q144 0 205 -61.5t61 -145.5q0 -76 -43.5 -123 t-109.5 -66q46 -7 80 -27t55 -47.5t31 -61t10 -66.5q0 -106 -74 -173t-213 -67q-136 0 -225 55z" />
<glyph unicode="&#xb4;" horiz-adv-x="647" d="M273 1314l312 278l62 -83l-344 -237z" />
<glyph unicode="&#xb5;" horiz-adv-x="1267" d="M190 -463v1581h106v-734q5 -161 71 -234t205 -73q64 0 127 23t115 58.5t92.5 82t65.5 95.5v782h106v-1118h-78l-28 220q-21 -41 -60.5 -83t-91.5 -76.5t-114.5 -56.5t-133.5 -22q-93 0 -164.5 35.5t-111.5 102.5v-583h-106z" />
<glyph unicode="&#xb6;" horiz-adv-x="985" d="M106 1173q0 185 115 285.5t304 100.5h382v-92h-67q-100 0 -136.5 -41.5t-36.5 -133.5v-1403h-109v910h-90q-69 0 -135 24.5t-116.5 71.5t-80.5 116t-30 162z" />
<glyph unicode="&#xb7;" horiz-adv-x="499" d="M153 671q0 40 24 67.5t73 27.5q48 0 72.5 -27.5t24.5 -67.5q0 -39 -24.5 -67t-72.5 -28q-49 0 -73 28t-24 67z" />
<glyph unicode="&#xb8;" horiz-adv-x="647" d="M153 -358l167 261h57l-110 -261h-114z" />
<glyph unicode="&#xb9;" horiz-adv-x="629" d="M88 694v83h192v654l-167 -56v74l197 66h67v-738h188v-83h-477z" />
<glyph unicode="&#xba;" horiz-adv-x="885" d="M69 1104q0 88 22 164.5t68.5 133t117 89t167.5 32.5q95 0 165.5 -32.5t117 -89t68.5 -133t22 -164.5t-22 -165.5t-68.5 -134t-117 -89t-165.5 -32.5q-97 0 -167.5 32.5t-117 89t-68.5 134t-22 165.5zM170 1104q0 -71 15.5 -131.5t49.5 -105.5t86 -70.5t123 -25.5 t123.5 25.5t86 70.5t50 105t16.5 132q0 144 -67.5 236.5t-208.5 92.5q-143 0 -208.5 -92.5t-65.5 -236.5z" />
<glyph unicode="&#xbb;" horiz-adv-x="978" d="M106 148l301 412l-301 412h100l308 -412l-308 -412h-100zM479 148l301 412l-301 412h100l307 -412l-307 -412h-100z" />
<glyph unicode="&#xbc;" horiz-adv-x="1656" d="M115 694v83h192v654l-166 -56v74l197 66h67v-738h187v-83h-477zM356 0l847 1528h98l-848 -1528h-97zM925 170v75l415 577h84v-568h94v-84h-94v-170h-88v170h-411zM1023 254h315v426z" />
<glyph unicode="&#xbd;" horiz-adv-x="1656" d="M115 694v83h192v654l-166 -56v74l197 66h67v-738h187v-83h-477zM356 0l847 1528h98l-848 -1528h-97zM1037 0v69l226 232q38 37 72.5 75.5t62.5 77.5t44 80.5t16 85.5q0 125 -155 125q-53 0 -108.5 -16t-95.5 -40l-28 77q42 23 104.5 42.5t136.5 19.5q117 0 179 -53 t62 -155q0 -53 -21 -101.5t-53.5 -95t-70.5 -88t-75 -78.5l-176 -171h419v-86h-539z" />
<glyph unicode="&#xbe;" horiz-adv-x="1656" d="M81 740l21 68q39 -23 92 -36t107 -13q101 0 147.5 51t46.5 118q0 71 -48.5 115.5t-131.5 44.5h-88v74h88q67 0 113.5 38t46.5 119q0 53 -39.5 91.5t-134.5 38.5q-60 0 -105.5 -11.5t-84.5 -30.5l-23 68q44 20 98.5 34t116.5 14q143 0 205 -61.5t62 -145.5 q0 -76 -44.5 -123t-108.5 -66q46 -7 79.5 -27t54.5 -47.5t31 -61t10 -66.5q0 -106 -74 -173t-213 -67q-137 0 -224 55zM356 0l847 1528h98l-848 -1528h-97zM925 170v75l415 577h84v-568h94v-84h-94v-170h-88v170h-411zM1023 254h315v426z" />
<glyph unicode="&#xbf;" horiz-adv-x="1091" d="M139 -84q0 82 30 148t75 123.5t97 110.5t97.5 107t75.5 110.5t30 122.5q0 58 -19 107h100q11 -21 19.5 -51t8.5 -62q0 -75 -30.5 -135t-75.5 -114t-97 -106t-97.5 -108t-75.5 -117t-30 -136q0 -57 19 -109t56.5 -93t99.5 -64t150 -23q104 0 205.5 33t167.5 73l27 -82 q-67 -40 -172.5 -77t-225.5 -37q-212 0 -323.5 101t-111.5 278zM477 1042q0 39 24 67t73 28t73 -28t24 -67q0 -40 -24 -67.5t-73 -27.5t-73 27.5t-24 67.5z" />
<glyph unicode="&#xc0;" horiz-adv-x="1404" d="M58 0l592 1559h105l592 -1559h-111l-169 461h-729l-168 -461h-112zM375 553h654l-214 562l-111 329h-6l-113 -333zM514 1962l62 83l313 -278l-30 -42z" />
<glyph unicode="&#xc1;" horiz-adv-x="1404" d="M58 0l592 1559h105l592 -1559h-111l-169 461h-729l-168 -461h-112zM375 553h654l-214 562l-111 329h-6l-113 -333zM514 1767l312 278l62 -83l-344 -237z" />
<glyph unicode="&#xc2;" horiz-adv-x="1404" d="M58 0l592 1559h105l592 -1559h-111l-169 461h-729l-168 -461h-112zM375 553h654l-214 562l-111 329h-6l-113 -333zM395 1723l271 318h69l271 -318h-76l-229 230l-229 -230h-77z" />
<glyph unicode="&#xc3;" horiz-adv-x="1404" d="M58 0l592 1559h105l592 -1559h-111l-169 461h-729l-168 -461h-112zM368 1756q4 79 57.5 134.5t127.5 55.5q51 0 86.5 -17.5t66.5 -39.5t61.5 -39t70.5 -17q62 0 88.5 32t31.5 81h77q-5 -79 -58 -134.5t-128 -55.5q-51 0 -88 17.5t-68 39.5t-61 39t-67 17q-63 0 -90 -32.5 t-31 -80.5h-76zM375 553h654l-214 562l-111 329h-6l-113 -333z" />
<glyph unicode="&#xc4;" horiz-adv-x="1404" d="M58 0l592 1559h105l592 -1559h-111l-169 461h-729l-168 -461h-112zM375 553h654l-214 562l-111 329h-6l-113 -333zM395 1897q0 33 23 57.5t63 24.5t63 -24.5t23 -57.5t-23 -57t-63 -24t-63 24t-23 57zM836 1897q0 33 22.5 57.5t62.5 24.5q39 0 62 -24.5t23 -57.5t-23 -57 t-62 -24q-40 0 -62.5 24t-22.5 57z" />
<glyph unicode="&#xc5;" horiz-adv-x="1404" d="M58 0l592 1559h105l592 -1559h-111l-169 461h-729l-168 -461h-112zM375 553h654l-214 562l-111 329h-6l-113 -333zM514 1906q0 79 54 133.5t133 54.5t133.5 -54.5t54.5 -133.5t-55 -133t-133 -54q-79 0 -133 54t-54 133zM580 1906q0 -60 35 -95t86 -35t85.5 35t34.5 95 t-34.5 95t-85.5 35t-86 -35t-35 -95z" />
<glyph unicode="&#xc6;" horiz-adv-x="1895" d="M58 0l701 1559h1007v-97h-876l179 -610h646v-97h-618l192 -660h491v-95h-546l-137 461h-729l-202 -461h-108zM412 553h655l-177 562l-87 329h-4l-137 -333z" />
<glyph unicode="&#xc7;" horiz-adv-x="1302" d="M115 780q0 180 47.5 327t139 252t228.5 162.5t315 57.5q109 0 197.5 -24.5t154.5 -57.5l-26 -90q-67 30 -149 51t-177 21q-294 0 -457 -178.5t-163 -520.5q0 -166 42.5 -296t121.5 -219t191 -134t251 -45q110 0 197 24t155 56l27 -91q-39 -21 -79.5 -38t-85.5 -28 t-97 -17t-117 -6q-184 0 -317.5 56.5t-223 160.5t-132.5 250t-43 327zM623 -358l167 261h57l-110 -261h-114z" />
<glyph unicode="&#xc8;" horiz-adv-x="1244" d="M203 0v1559h912v-97h-803v-610h752v-97h-752v-660h817v-95h-926zM481 1962l62 83l313 -278l-30 -42z" />
<glyph unicode="&#xc9;" horiz-adv-x="1244" d="M203 0v1559h912v-97h-803v-610h752v-97h-752v-660h817v-95h-926zM481 1767l312 278l62 -83l-344 -237z" />
<glyph unicode="&#xca;" horiz-adv-x="1244" d="M203 0v1559h912v-97h-803v-610h752v-97h-752v-660h817v-95h-926zM363 1723l271 318h69l271 -318h-76l-229 230l-229 -230h-77z" />
<glyph unicode="&#xcb;" horiz-adv-x="1244" d="M203 0v1559h912v-97h-803v-610h752v-97h-752v-660h817v-95h-926zM363 1897q0 33 23 57.5t63 24.5t63 -24.5t23 -57.5t-23 -57t-63 -24t-63 24t-23 57zM804 1897q0 33 22.5 57.5t62.5 24.5q39 0 62 -24.5t23 -57.5t-23 -57t-62 -24q-40 0 -62.5 24t-22.5 57z" />
<glyph unicode="&#xcc;" horiz-adv-x="524" d="M75 1962l62 83l313 -278l-30 -42zM208 0v1559h110v-1559h-110z" />
<glyph unicode="&#xcd;" horiz-adv-x="524" d="M79 1767l312 278l62 -83l-344 -237zM208 0v1559h110v-1559h-110z" />
<glyph unicode="&#xce;" horiz-adv-x="524" d="M-40 1723l271 318h69l271 -318h-76l-229 230l-229 -230h-77zM208 0v1559h110v-1559h-110z" />
<glyph unicode="&#xcf;" horiz-adv-x="524" d="M-40 1897q0 33 23 57.5t63 24.5t63 -24.5t23 -57.5t-23 -57t-63 -24t-63 24t-23 57zM208 0v1559h110v-1559h-110zM401 1897q0 33 22.5 57.5t62.5 24.5q39 0 62 -24.5t23 -57.5t-23 -57t-62 -24q-40 0 -62.5 24t-22.5 57z" />
<glyph unicode="&#xd0;" horiz-adv-x="1475" d="M44 698v86h159v775h382q382 0 579 -197.5t197 -579.5q0 -384 -197 -583t-579 -199h-382v698h-159zM312 99h273q160 0 284 40t209.5 123t129.5 212t44 308q0 358 -173.5 518t-493.5 160h-273v-676h403v-86h-403v-599z" />
<glyph unicode="&#xd1;" horiz-adv-x="1517" d="M203 0v1559h117l760 -1193q42 -64 77 -120t60 -102h5q-10 66 -13 138t-3 155v1122h108v-1559h-115l-762 1194q-41 65 -75.5 120.5t-60.5 101.5h-5q9 -67 12.5 -138.5t3.5 -155.5v-1122h-109zM426 1756q4 79 57.5 134.5t127.5 55.5q51 0 86.5 -17.5t66.5 -39.5t61.5 -39 t70.5 -17q62 0 88.5 32t31.5 81h77q-5 -79 -58 -134.5t-128 -55.5q-51 0 -88 17.5t-68 39.5t-61 39t-67 17q-63 0 -90 -32.5t-31 -80.5h-76z" />
<glyph unicode="&#xd2;" horiz-adv-x="1559" d="M115 780q0 171 42 318t125.5 253.5t207.5 167t290 60.5t290 -60.5t207.5 -167t125 -253.5t41.5 -318q0 -172 -41.5 -318.5t-125 -253t-207.5 -166.5t-290 -60t-290 60t-207.5 166.5t-125.5 253.5t-42 318zM225 780q0 -153 33.5 -282.5t103 -223t173 -145.5t245.5 -52 q141 0 245 52t173.5 145.5t103.5 223t34 282.5q0 152 -34 281t-103.5 222.5t-173.5 147t-245 53.5q-142 0 -245.5 -53.5t-173 -147t-103 -222.5t-33.5 -281zM592 1962l62 83l313 -278l-30 -42z" />
<glyph unicode="&#xd3;" horiz-adv-x="1559" d="M115 780q0 171 42 318t125.5 253.5t207.5 167t290 60.5t290 -60.5t207.5 -167t125 -253.5t41.5 -318q0 -172 -41.5 -318.5t-125 -253t-207.5 -166.5t-290 -60t-290 60t-207.5 166.5t-125.5 253.5t-42 318zM225 780q0 -153 33.5 -282.5t103 -223t173 -145.5t245.5 -52 q141 0 245 52t173.5 145.5t103.5 223t34 282.5q0 152 -34 281t-103.5 222.5t-173.5 147t-245 53.5q-142 0 -245.5 -53.5t-173 -147t-103 -222.5t-33.5 -281zM593 1767l312 278l62 -83l-344 -237z" />
<glyph unicode="&#xd4;" horiz-adv-x="1559" d="M115 780q0 171 42 318t125.5 253.5t207.5 167t290 60.5t290 -60.5t207.5 -167t125 -253.5t41.5 -318q0 -172 -41.5 -318.5t-125 -253t-207.5 -166.5t-290 -60t-290 60t-207.5 166.5t-125.5 253.5t-42 318zM225 780q0 -153 33.5 -282.5t103 -223t173 -145.5t245.5 -52 q141 0 245 52t173.5 145.5t103.5 223t34 282.5q0 152 -34 281t-103.5 222.5t-173.5 147t-245 53.5q-142 0 -245.5 -53.5t-173 -147t-103 -222.5t-33.5 -281zM473 1723l271 318h69l271 -318h-76l-229 230l-229 -230h-77z" />
<glyph unicode="&#xd5;" horiz-adv-x="1559" d="M115 780q0 171 42 318t125.5 253.5t207.5 167t290 60.5t290 -60.5t207.5 -167t125 -253.5t41.5 -318q0 -172 -41.5 -318.5t-125 -253t-207.5 -166.5t-290 -60t-290 60t-207.5 166.5t-125.5 253.5t-42 318zM225 780q0 -153 33.5 -282.5t103 -223t173 -145.5t245.5 -52 q141 0 245 52t173.5 145.5t103.5 223t34 282.5q0 152 -34 281t-103.5 222.5t-173.5 147t-245 53.5q-142 0 -245.5 -53.5t-173 -147t-103 -222.5t-33.5 -281zM446 1756q4 79 57.5 134.5t127.5 55.5q51 0 86.5 -17.5t66.5 -39.5t61.5 -39t70.5 -17q62 0 88.5 32t31.5 81h77 q-5 -79 -58 -134.5t-128 -55.5q-51 0 -88 17.5t-68 39.5t-61 39t-67 17q-63 0 -90 -32.5t-31 -80.5h-76z" />
<glyph unicode="&#xd6;" horiz-adv-x="1559" d="M115 780q0 171 42 318t125.5 253.5t207.5 167t290 60.5t290 -60.5t207.5 -167t125 -253.5t41.5 -318q0 -172 -41.5 -318.5t-125 -253t-207.5 -166.5t-290 -60t-290 60t-207.5 166.5t-125.5 253.5t-42 318zM225 780q0 -153 33.5 -282.5t103 -223t173 -145.5t245.5 -52 q141 0 245 52t173.5 145.5t103.5 223t34 282.5q0 152 -34 281t-103.5 222.5t-173.5 147t-245 53.5q-142 0 -245.5 -53.5t-173 -147t-103 -222.5t-33.5 -281zM473 1897q0 33 23 57.5t63 24.5t63 -24.5t23 -57.5t-23 -57t-63 -24t-63 24t-23 57zM914 1897q0 33 22.5 57.5 t62.5 24.5q39 0 62 -24.5t23 -57.5t-23 -57t-62 -24q-40 0 -62.5 24t-22.5 57z" />
<glyph unicode="&#xd7;" horiz-adv-x="1263" d="M199 1018l72 70l361 -361l361 361l71 -70l-362 -363l360 -359l-69 -71l-361 360l-361 -360l-70 71l362 359z" />
<glyph unicode="&#xd8;" horiz-adv-x="1559" d="M115 780q0 171 42 318t125.5 253.5t207.5 167t290 60.5q110 0 203 -28t167 -82l109 183h88l-137 -228q118 -109 176 -275t58 -369q0 -172 -41.5 -318.5t-125 -253t-207 -166.5t-290.5 -60q-111 0 -203.5 27.5t-167.5 78.5l-108 -181h-89l137 227q-117 109 -175.5 274.5 t-58.5 371.5zM225 780q0 -177 43.5 -318.5t133.5 -236.5l697 1162q-129 97 -319 97q-142 0 -245.5 -53.5t-173 -147t-103 -222.5t-33.5 -281zM461 174q129 -97 319 -97q141 0 245 52t173.5 145.5t103.5 223t34 282.5q0 174 -44 316t-135 240z" />
<glyph unicode="&#xd9;" horiz-adv-x="1508" d="M197 614v945h108v-948q0 -280 120.5 -405t329.5 -125q208 0 328 125t120 405v948h109v-945q0 -164 -40 -283t-113 -197.5t-176 -115t-228 -36.5q-126 0 -228.5 36.5t-175.5 115t-113.5 197t-40.5 283.5zM567 1962l62 83l313 -278l-30 -42z" />
<glyph unicode="&#xda;" horiz-adv-x="1508" d="M197 614v945h108v-948q0 -280 120.5 -405t329.5 -125q208 0 328 125t120 405v948h109v-945q0 -164 -40 -283t-113 -197.5t-176 -115t-228 -36.5q-126 0 -228.5 36.5t-175.5 115t-113.5 197t-40.5 283.5zM567 1767l312 278l62 -83l-344 -237z" />
<glyph unicode="&#xdb;" horiz-adv-x="1508" d="M197 614v945h108v-948q0 -280 120.5 -405t329.5 -125q208 0 328 125t120 405v948h109v-945q0 -164 -40 -283t-113 -197.5t-176 -115t-228 -36.5q-126 0 -228.5 36.5t-175.5 115t-113.5 197t-40.5 283.5zM449 1723l271 318h69l271 -318h-76l-229 230l-229 -230h-77z" />
<glyph unicode="&#xdc;" horiz-adv-x="1508" d="M197 614v945h108v-948q0 -280 120.5 -405t329.5 -125q208 0 328 125t120 405v948h109v-945q0 -164 -40 -283t-113 -197.5t-176 -115t-228 -36.5q-126 0 -228.5 36.5t-175.5 115t-113.5 197t-40.5 283.5zM449 1897q0 33 23 57.5t63 24.5t63 -24.5t23 -57.5t-23 -57 t-63 -24t-63 24t-23 57zM890 1897q0 33 22.5 57.5t62.5 24.5q39 0 62 -24.5t23 -57.5t-23 -57t-62 -24q-40 0 -62.5 24t-22.5 57z" />
<glyph unicode="&#xdd;" horiz-adv-x="1265" d="M42 1559h115l475 -814h2l475 814h115l-537 -912v-647h-108v647zM445 1767l312 278l62 -83l-344 -237z" />
<glyph unicode="&#xde;" horiz-adv-x="1267" d="M203 0v1559h109v-293h366q238 0 367.5 -120.5t129.5 -328.5q0 -111 -38 -197t-105 -143.5t-162 -87t-208 -29.5h-350v-360h-109zM312 459h350q190 0 297.5 89.5t107.5 268.5q0 174 -98.5 262.5t-290.5 88.5h-366v-709z" />
<glyph unicode="&#xdf;" horiz-adv-x="1371" d="M181 0v1007q0 128 30 234t93.5 180t163 116t241.5 42q110 0 196 -28t143.5 -76.5t87.5 -115.5t30 -147q0 -117 -66 -202t-195 -109q67 -14 129.5 -45.5t110 -87t75.5 -137t28 -194.5q0 -125 -35.5 -211.5t-97.5 -140.5t-145.5 -78.5t-180.5 -24.5q-95 0 -179.5 17 t-143.5 41l20 88q60 -26 139.5 -41.5t154.5 -15.5q79 0 146 20t115.5 63t75.5 111t27 168q0 199 -110.5 313.5t-322.5 114.5h-93l-28 90h150q69 0 129.5 14t103.5 45.5t68.5 80t25.5 115.5q0 71 -28 124.5t-76.5 88t-114.5 52t-139 17.5q-232 0 -328 -122.5t-96 -358.5 v-1007h-104z" />
<glyph unicode="&#xe0;" horiz-adv-x="1151" d="M97 305q0 181 125 271.5t368 90.5h273v78q0 166 -77 233.5t-223 67.5q-113 0 -198 -23t-153 -60l-24 79q62 37 159 66t216 29q203 0 303.5 -106t100.5 -286v-745h-77l-27 220q-62 -113 -166.5 -175.5t-247.5 -62.5q-75 0 -139.5 20.5t-112 62t-74 102t-26.5 138.5z M199 305q0 -60 19.5 -104t54 -73t81 -43t97.5 -14q99 0 176 34t129 88t79.5 121.5t27.5 136.5v125h-273q-208 0 -299.5 -65t-91.5 -206zM389 1509l62 83l313 -278l-30 -42z" />
<glyph unicode="&#xe1;" horiz-adv-x="1151" d="M97 305q0 181 125 271.5t368 90.5h273v78q0 166 -77 233.5t-223 67.5q-113 0 -198 -23t-153 -60l-24 79q62 37 159 66t216 29q203 0 303.5 -106t100.5 -286v-745h-77l-27 220q-62 -113 -166.5 -175.5t-247.5 -62.5q-75 0 -139.5 20.5t-112 62t-74 102t-26.5 138.5z M199 305q0 -60 19.5 -104t54 -73t81 -43t97.5 -14q99 0 176 34t129 88t79.5 121.5t27.5 136.5v125h-273q-208 0 -299.5 -65t-91.5 -206zM388 1314l312 278l62 -83l-344 -237z" />
<glyph unicode="&#xe2;" horiz-adv-x="1151" d="M97 305q0 181 125 271.5t368 90.5h273v78q0 166 -77 233.5t-223 67.5q-113 0 -198 -23t-153 -60l-24 79q62 37 159 66t216 29q203 0 303.5 -106t100.5 -286v-745h-77l-27 220q-62 -113 -166.5 -175.5t-247.5 -62.5q-75 0 -139.5 20.5t-112 62t-74 102t-26.5 138.5z M199 305q0 -60 19.5 -104t54 -73t81 -43t97.5 -14q99 0 176 34t129 88t79.5 121.5t27.5 136.5v125h-273q-208 0 -299.5 -65t-91.5 -206zM270 1270l271 318h69l271 -318h-76l-229 230l-229 -230h-77z" />
<glyph unicode="&#xe3;" horiz-adv-x="1151" d="M97 305q0 181 125 271.5t368 90.5h273v78q0 166 -77 233.5t-223 67.5q-113 0 -198 -23t-153 -60l-24 79q62 37 159 66t216 29q203 0 303.5 -106t100.5 -286v-745h-77l-27 220q-62 -113 -166.5 -175.5t-247.5 -62.5q-75 0 -139.5 20.5t-112 62t-74 102t-26.5 138.5z M199 305q0 -60 19.5 -104t54 -73t81 -43t97.5 -14q99 0 176 34t129 88t79.5 121.5t27.5 136.5v125h-273q-208 0 -299.5 -65t-91.5 -206zM243 1303q4 79 57.5 134.5t127.5 55.5q51 0 86.5 -17.5t66.5 -39.5t61.5 -39t70.5 -17q62 0 88.5 32t31.5 81h77q-5 -79 -58 -134.5 t-128 -55.5q-51 0 -88 17.5t-68 39.5t-61 39t-67 17q-63 0 -90 -32.5t-31 -80.5h-76z" />
<glyph unicode="&#xe4;" horiz-adv-x="1151" d="M97 305q0 181 125 271.5t368 90.5h273v78q0 166 -77 233.5t-223 67.5q-113 0 -198 -23t-153 -60l-24 79q62 37 159 66t216 29q203 0 303.5 -106t100.5 -286v-745h-77l-27 220q-62 -113 -166.5 -175.5t-247.5 -62.5q-75 0 -139.5 20.5t-112 62t-74 102t-26.5 138.5z M199 305q0 -60 19.5 -104t54 -73t81 -43t97.5 -14q99 0 176 34t129 88t79.5 121.5t27.5 136.5v125h-273q-208 0 -299.5 -65t-91.5 -206zM270 1444q0 33 23 57.5t63 24.5t63 -24.5t23 -57.5t-23 -57t-63 -24t-63 24t-23 57zM711 1444q0 33 22.5 57.5t62.5 24.5q39 0 62 -24.5 t23 -57.5t-23 -57t-62 -24q-40 0 -62.5 24t-22.5 57z" />
<glyph unicode="&#xe5;" horiz-adv-x="1151" d="M97 305q0 181 125 271.5t368 90.5h273v78q0 166 -77 233.5t-223 67.5q-113 0 -198 -23t-153 -60l-24 79q62 37 159 66t216 29q203 0 303.5 -106t100.5 -286v-745h-77l-27 220q-62 -113 -166.5 -175.5t-247.5 -62.5q-75 0 -139.5 20.5t-112 62t-74 102t-26.5 138.5z M199 305q0 -60 19.5 -104t54 -73t81 -43t97.5 -14q99 0 176 34t129 88t79.5 121.5t27.5 136.5v125h-273q-208 0 -299.5 -65t-91.5 -206zM389 1453q0 79 54 133.5t133 54.5t133.5 -54.5t54.5 -133.5t-55 -133t-133 -54q-79 0 -133 54t-54 133zM455 1453q0 -60 35 -95t86 -35 t85.5 35t34.5 95t-34.5 95t-85.5 35t-86 -35t-35 -95z" />
<glyph unicode="&#xe6;" horiz-adv-x="1850" d="M97 305q0 181 125 271.5t368 90.5h273v78q0 166 -77 233.5t-223 67.5q-113 0 -198 -23t-153 -60l-24 79q62 37 159 66t216 29q157 0 246 -64t121 -179q53 113 151.5 178t251.5 65q195 0 301 -116t106 -327q0 -44 -8 -97t-19 -87h-757q4 -98 29.5 -179t74.5 -137.5 t125 -89.5t180 -33q88 0 158.5 23.5t128.5 55.5l28 -81q-57 -35 -137.5 -60t-181.5 -25q-184 0 -292.5 77.5t-158.5 211.5q-62 -145 -185.5 -218t-275.5 -73q-75 0 -139.5 20.5t-112 62t-74 102t-26.5 138.5zM199 305q0 -60 19.5 -104t54 -73t81 -43t97.5 -14q99 0 176 34 t129 88t79.5 121.5t27.5 136.5v125h-273q-208 0 -299.5 -65t-91.5 -206zM958 590h676q4 20 6.5 49.5t2.5 54.5q0 183 -78.5 270t-231.5 87q-99 0 -168.5 -35t-114.5 -95t-67.5 -146t-24.5 -185z" />
<glyph unicode="&#xe7;" horiz-adv-x="1036" d="M111 560q0 126 32.5 231t98 182.5t163 120.5t227.5 43q86 0 157.5 -16.5t135.5 -44.5l-24 -80q-53 26 -120.5 39.5t-148.5 13.5q-107 0 -185.5 -36.5t-129 -100.5t-75 -154.5t-24.5 -197.5q0 -106 25.5 -196.5t77.5 -155t132.5 -101t191.5 -36.5q75 0 143.5 17.5 t127.5 43.5l29 -81q-60 -31 -138 -49t-166 -18q-133 0 -232 42.5t-164.5 120.5t-99.5 183t-34 230zM438 -358l167 261h57l-110 -261h-114z" />
<glyph unicode="&#xe8;" horiz-adv-x="1137" d="M111 560q0 126 31.5 231t93.5 182.5t156 120.5t219 43q204 0 310 -116t106 -327q0 -44 -8 -97t-19 -87h-785q9 -195 113.5 -317t314.5 -122q88 0 163 23.5t133 55.5l28 -81q-57 -35 -142 -60t-187 -25q-132 0 -231.5 42.5t-165 120.5t-98 183t-32.5 230zM218 590h703 q4 20 6.5 49.5t2.5 54.5q0 183 -77.5 270t-241.5 87q-104 0 -178.5 -35t-120 -95t-69 -146t-25.5 -185zM382 1509l62 83l313 -278l-30 -42z" />
<glyph unicode="&#xe9;" horiz-adv-x="1137" d="M111 560q0 126 31.5 231t93.5 182.5t156 120.5t219 43q204 0 310 -116t106 -327q0 -44 -8 -97t-19 -87h-785q9 -195 113.5 -317t314.5 -122q88 0 163 23.5t133 55.5l28 -81q-57 -35 -142 -60t-187 -25q-132 0 -231.5 42.5t-165 120.5t-98 183t-32.5 230zM218 590h703 q4 20 6.5 49.5t2.5 54.5q0 183 -77.5 270t-241.5 87q-104 0 -178.5 -35t-120 -95t-69 -146t-25.5 -185zM381 1314l312 278l62 -83l-344 -237z" />
<glyph unicode="&#xea;" horiz-adv-x="1137" d="M111 560q0 126 31.5 231t93.5 182.5t156 120.5t219 43q204 0 310 -116t106 -327q0 -44 -8 -97t-19 -87h-785q9 -195 113.5 -317t314.5 -122q88 0 163 23.5t133 55.5l28 -81q-57 -35 -142 -60t-187 -25q-132 0 -231.5 42.5t-165 120.5t-98 183t-32.5 230zM218 590h703 q4 20 6.5 49.5t2.5 54.5q0 183 -77.5 270t-241.5 87q-104 0 -178.5 -35t-120 -95t-69 -146t-25.5 -185zM263 1270l271 318h69l271 -318h-76l-229 230l-229 -230h-77z" />
<glyph unicode="&#xeb;" horiz-adv-x="1137" d="M111 560q0 126 31.5 231t93.5 182.5t156 120.5t219 43q204 0 310 -116t106 -327q0 -44 -8 -97t-19 -87h-785q9 -195 113.5 -317t314.5 -122q88 0 163 23.5t133 55.5l28 -81q-57 -35 -142 -60t-187 -25q-132 0 -231.5 42.5t-165 120.5t-98 183t-32.5 230zM218 590h703 q4 20 6.5 49.5t2.5 54.5q0 183 -77.5 270t-241.5 87q-104 0 -178.5 -35t-120 -95t-69 -146t-25.5 -185zM263 1444q0 33 23 57.5t63 24.5t63 -24.5t23 -57.5t-23 -57t-63 -24t-63 24t-23 57zM704 1444q0 33 22.5 57.5t62.5 24.5q39 0 62 -24.5t23 -57.5t-23 -57t-62 -24 q-40 0 -62.5 24t-22.5 57z" />
<glyph unicode="&#xec;" horiz-adv-x="499" d="M62 1509l62 83l313 -278l-30 -42zM197 0v1118h106v-1118h-106z" />
<glyph unicode="&#xed;" horiz-adv-x="499" d="M65 1314l312 278l62 -83l-344 -237zM197 0v1118h106v-1118h-106z" />
<glyph unicode="&#xee;" horiz-adv-x="499" d="M-53 1270l271 318h69l271 -318h-76l-229 230l-229 -230h-77zM197 0v1118h106v-1118h-106z" />
<glyph unicode="&#xef;" horiz-adv-x="499" d="M-53 1444q0 33 23 57.5t63 24.5t63 -24.5t23 -57.5t-23 -57t-63 -24t-63 24t-23 57zM197 0v1118h106v-1118h-106zM388 1444q0 33 22.5 57.5t62.5 24.5q39 0 62 -24.5t23 -57.5t-23 -57t-62 -24q-40 0 -62.5 24t-22.5 57z" />
<glyph unicode="&#xf0;" horiz-adv-x="1281" d="M111 544q0 119 34 228t99.5 189.5t164 128t227.5 47.5q132 0 215.5 -47.5t153.5 -126.5h6q-37 117 -106.5 220.5t-166.5 186.5l-228 -107l-29 60l199 93q-127 95 -278 150l29 66q85 -33 167 -77t157 -104l226 108l30 -59l-201 -95q157 -142 254.5 -346.5t97.5 -473.5 q0 -127 -34.5 -237t-103 -191.5t-167 -128t-225.5 -46.5q-124 0 -220.5 43.5t-163.5 120.5t-102 179.5t-35 218.5zM218 550q0 -104 27.5 -191.5t79.5 -151t129.5 -101t177.5 -37.5q106 0 187.5 44t133.5 114.5t78.5 159t26.5 173.5q0 102 -23.5 191t-74 155t-130.5 104.5 t-194 38.5q-106 0 -184.5 -38.5t-130.5 -106t-77.5 -157t-25.5 -197.5z" />
<glyph unicode="&#xf1;" horiz-adv-x="1285" d="M190 0v1118h79l27 -220q35 44 80 86.5t100.5 76.5t120.5 55t136 21q177 0 273 -109t96 -310v-718h-106v718q0 154 -73 239t-199 85q-66 0 -129 -22t-118.5 -59.5t-101.5 -83.5t-79 -95v-782h-106zM311 1303q4 79 57.5 134.5t127.5 55.5q51 0 86.5 -17.5t66.5 -39.5 t61.5 -39t70.5 -17q62 0 88.5 32t31.5 81h77q-5 -79 -58 -134.5t-128 -55.5q-51 0 -88 17.5t-68 39.5t-61 39t-67 17q-63 0 -90 -32.5t-31 -80.5h-76z" />
<glyph unicode="&#xf2;" horiz-adv-x="1226" d="M111 560q0 126 31.5 231t93.5 182.5t156 120.5t222 43q127 0 220.5 -43t156 -120.5t93.5 -183t31 -230.5t-31 -230t-93.5 -183t-156.5 -120.5t-220 -42.5q-128 0 -222 42.5t-156 120.5t-93.5 183t-31.5 230zM218 560q0 -106 22.5 -196.5t70 -155t123.5 -101t180 -36.5 t179 36.5t122.5 101t70.5 154.5t23 197t-23 197.5t-70.5 154.5t-122.5 100.5t-179 36.5t-180 -36.5t-123.5 -100.5t-70 -154.5t-22.5 -197.5zM426 1509l62 83l313 -278l-30 -42z" />
<glyph unicode="&#xf3;" horiz-adv-x="1226" d="M111 560q0 126 31.5 231t93.5 182.5t156 120.5t222 43q127 0 220.5 -43t156 -120.5t93.5 -183t31 -230.5t-31 -230t-93.5 -183t-156.5 -120.5t-220 -42.5q-128 0 -222 42.5t-156 120.5t-93.5 183t-31.5 230zM218 560q0 -106 22.5 -196.5t70 -155t123.5 -101t180 -36.5 t179 36.5t122.5 101t70.5 154.5t23 197t-23 197.5t-70.5 154.5t-122.5 100.5t-179 36.5t-180 -36.5t-123.5 -100.5t-70 -154.5t-22.5 -197.5zM426 1314l312 278l62 -83l-344 -237z" />
<glyph unicode="&#xf4;" horiz-adv-x="1226" d="M111 560q0 126 31.5 231t93.5 182.5t156 120.5t222 43q127 0 220.5 -43t156 -120.5t93.5 -183t31 -230.5t-31 -230t-93.5 -183t-156.5 -120.5t-220 -42.5q-128 0 -222 42.5t-156 120.5t-93.5 183t-31.5 230zM218 560q0 -106 22.5 -196.5t70 -155t123.5 -101t180 -36.5 t179 36.5t122.5 101t70.5 154.5t23 197t-23 197.5t-70.5 154.5t-122.5 100.5t-179 36.5t-180 -36.5t-123.5 -100.5t-70 -154.5t-22.5 -197.5zM307 1270l271 318h69l271 -318h-76l-229 230l-229 -230h-77z" />
<glyph unicode="&#xf5;" horiz-adv-x="1226" d="M111 560q0 126 31.5 231t93.5 182.5t156 120.5t222 43q127 0 220.5 -43t156 -120.5t93.5 -183t31 -230.5t-31 -230t-93.5 -183t-156.5 -120.5t-220 -42.5q-128 0 -222 42.5t-156 120.5t-93.5 183t-31.5 230zM218 560q0 -106 22.5 -196.5t70 -155t123.5 -101t180 -36.5 t179 36.5t122.5 101t70.5 154.5t23 197t-23 197.5t-70.5 154.5t-122.5 100.5t-179 36.5t-180 -36.5t-123.5 -100.5t-70 -154.5t-22.5 -197.5zM280 1303q4 79 57.5 134.5t127.5 55.5q51 0 86.5 -17.5t66.5 -39.5t61.5 -39t70.5 -17q62 0 88.5 32t31.5 81h77 q-5 -79 -58 -134.5t-128 -55.5q-51 0 -88 17.5t-68 39.5t-61 39t-67 17q-63 0 -90 -32.5t-31 -80.5h-76z" />
<glyph unicode="&#xf6;" horiz-adv-x="1226" d="M111 560q0 126 31.5 231t93.5 182.5t156 120.5t222 43q127 0 220.5 -43t156 -120.5t93.5 -183t31 -230.5t-31 -230t-93.5 -183t-156.5 -120.5t-220 -42.5q-128 0 -222 42.5t-156 120.5t-93.5 183t-31.5 230zM218 560q0 -106 22.5 -196.5t70 -155t123.5 -101t180 -36.5 t179 36.5t122.5 101t70.5 154.5t23 197t-23 197.5t-70.5 154.5t-122.5 100.5t-179 36.5t-180 -36.5t-123.5 -100.5t-70 -154.5t-22.5 -197.5zM307 1444q0 33 23 57.5t63 24.5t63 -24.5t23 -57.5t-23 -57t-63 -24t-63 24t-23 57zM748 1444q0 33 22.5 57.5t62.5 24.5 q39 0 62 -24.5t23 -57.5t-23 -57t-62 -24q-40 0 -62.5 24t-22.5 57z" />
<glyph unicode="&#xf7;" horiz-adv-x="1263" d="M144 611v91h976v-91h-976zM514 303q0 46 29 81t89 35t89 -35t29 -81t-29 -80.5t-89 -34.5t-89 34.5t-29 80.5zM514 1027q0 47 29 82t89 35t89 -35t29 -82q0 -46 -29 -80.5t-89 -34.5t-89 34.5t-29 80.5z" />
<glyph unicode="&#xf8;" horiz-adv-x="1226" d="M111 560q0 126 31.5 231t93.5 182.5t156 120.5t222 43q132 0 228 -49l103 182h87l-122 -221q104 -75 154.5 -202t50.5 -287q0 -125 -31 -230t-93.5 -183t-156.5 -120.5t-220 -42.5q-151 0 -258 60l-74 -137h-88l100 181q-93 77 -138 198t-45 274zM218 560 q0 -125 29 -223.5t93 -162.5l459 833q-40 18 -86 30t-99 12q-104 0 -180 -36.5t-123.5 -100.5t-70 -154.5t-22.5 -197.5zM402 125q86 -54 212 -54q104 0 179 36.5t122.5 101t70.5 154.5t23 197q0 133 -36 237t-110 168z" />
<glyph unicode="&#xf9;" horiz-adv-x="1263" d="M185 400v718h107v-718q0 -155 66 -239t209 -84q65 0 127.5 23t114.5 58.5t92.5 82t65.5 95.5v782h107v-1118h-78l-29 220q-20 -41 -59.5 -83t-91.5 -76.5t-118 -56.5t-140 -22q-181 0 -277 108.5t-96 309.5zM444 1509l62 83l313 -278l-30 -42z" />
<glyph unicode="&#xfa;" horiz-adv-x="1263" d="M185 400v718h107v-718q0 -155 66 -239t209 -84q65 0 127.5 23t114.5 58.5t92.5 82t65.5 95.5v782h107v-1118h-78l-29 220q-20 -41 -59.5 -83t-91.5 -76.5t-118 -56.5t-140 -22q-181 0 -277 108.5t-96 309.5zM445 1314l312 278l62 -83l-344 -237z" />
<glyph unicode="&#xfb;" horiz-adv-x="1263" d="M185 400v718h107v-718q0 -155 66 -239t209 -84q65 0 127.5 23t114.5 58.5t92.5 82t65.5 95.5v782h107v-1118h-78l-29 220q-20 -41 -59.5 -83t-91.5 -76.5t-118 -56.5t-140 -22q-181 0 -277 108.5t-96 309.5zM325 1270l271 318h69l271 -318h-76l-229 230l-229 -230h-77z " />
<glyph unicode="&#xfc;" horiz-adv-x="1263" d="M185 400v718h107v-718q0 -155 66 -239t209 -84q65 0 127.5 23t114.5 58.5t92.5 82t65.5 95.5v782h107v-1118h-78l-29 220q-20 -41 -59.5 -83t-91.5 -76.5t-118 -56.5t-140 -22q-181 0 -277 108.5t-96 309.5zM325 1444q0 33 23 57.5t63 24.5t63 -24.5t23 -57.5t-23 -57 t-63 -24t-63 24t-23 57zM766 1444q0 33 22.5 57.5t62.5 24.5q39 0 62 -24.5t23 -57.5t-23 -57t-62 -24q-40 0 -62.5 24t-22.5 57z" />
<glyph unicode="&#xfd;" horiz-adv-x="1283" d="M185 419v699h107v-699q0 -155 66 -239.5t209 -84.5q65 0 126.5 23t113.5 58.5t91 82t65 95.5v764h106v-1067q0 -514 -440 -514q-125 0 -229 33.5t-164 73.5l27 85q60 -37 158 -67t208 -30q82 0 144 22t104 71.5t64 131t22 196.5v185q-21 -41 -59 -84t-90 -76.5 t-117 -55.5t-139 -22q-181 0 -277 109t-96 310zM454 1314l312 278l62 -83l-344 -237z" />
<glyph unicode="&#xfe;" horiz-adv-x="1270" d="M190 -442v2001h106v-661q28 42 68.5 84.5t94 76.5t118 56t141.5 22q92 0 172 -36.5t139 -108t92.5 -179t33.5 -250.5q0 -155 -36 -265t-98.5 -181t-147 -103t-181.5 -32q-139 0 -237.5 64.5t-158.5 173.5v-662h-106zM296 490q0 -76 24.5 -149.5t73 -133t121.5 -95 t170 -35.5q66 0 132.5 25.5t117 83t82.5 150t32 227.5q0 127 -26.5 217t-72 147.5t-108 86t-131.5 28.5q-126 0 -231 -67.5t-184 -192.5v-292z" />
<glyph unicode="&#xff;" horiz-adv-x="1283" d="M185 419v699h107v-699q0 -155 66 -239.5t209 -84.5q65 0 126.5 23t113.5 58.5t91 82t65 95.5v764h106v-1067q0 -514 -440 -514q-125 0 -229 33.5t-164 73.5l27 85q60 -37 158 -67t208 -30q82 0 144 22t104 71.5t64 131t22 196.5v185q-21 -41 -59 -84t-90 -76.5 t-117 -55.5t-139 -22q-181 0 -277 109t-96 310zM336 1444q0 33 23 57.5t63 24.5t63 -24.5t23 -57.5t-23 -57t-63 -24t-63 24t-23 57zM777 1444q0 33 22.5 57.5t62.5 24.5q39 0 62 -24.5t23 -57.5t-23 -57t-62 -24q-40 0 -62.5 24t-22.5 57z" />
<glyph unicode="&#x131;" horiz-adv-x="499" d="M197 0v1118h106v-1118h-106z" />
<glyph unicode="&#x141;" horiz-adv-x="1166" d="M60 650v88l143 63v758h109v-709l364 159v-88l-364 -159v-663h776v-99h-885v713z" />
<glyph unicode="&#x142;" horiz-adv-x="499" d="M60 650v88l137 61v760h106v-711l137 59v-88l-137 -60v-759h-106v711z" />
<glyph unicode="&#x152;" horiz-adv-x="2389" d="M115 780q0 171 42 318t125.5 253.5t207.5 167t290 60.5q210 0 343.5 -94t207.5 -253v327h930v-97h-821v-610h770v-97h-770v-660h835v-95h-944v329q-74 -159 -207 -253t-344 -94q-166 0 -290 60t-207.5 166.5t-125.5 253.5t-42 318zM225 780q0 -153 33.5 -282.5t103 -223 t173 -145.5t245.5 -52q139 0 240.5 51t171 143.5t104.5 222t40 286.5q0 152 -34 281t-103.5 222.5t-173.5 147t-245 53.5q-142 0 -245.5 -53.5t-173 -147t-103 -222.5t-33.5 -281z" />
<glyph unicode="&#x153;" horiz-adv-x="1926" d="M111 560q0 126 30.5 231t91.5 182.5t153.5 120.5t220.5 43q148 0 244 -63t134 -155q60 101 163.5 159.5t251.5 58.5q203 0 310 -116t107 -327q0 -44 -8.5 -97t-19.5 -87h-784q9 -195 113 -317t315 -122q88 0 163 23.5t133 55.5l27 -81q-58 -35 -142 -60t-186 -25 q-157 0 -267 57.5t-173 161.5q-44 -97 -137.5 -158t-243.5 -61q-128 0 -220.5 42.5t-153.5 120.5t-91.5 183t-30.5 230zM218 560q0 -106 21.5 -196.5t68 -155t121 -101t178.5 -36.5q134 0 217 58.5t123 162.5q-46 119 -46 268q0 153 44 271q-40 101 -123.5 159.5 t-214.5 58.5q-104 0 -178.5 -36.5t-121 -100.5t-68 -154.5t-21.5 -197.5zM1007 590h703q4 20 7 49.5t3 54.5q0 183 -78 270t-242 87q-104 0 -178 -35t-120.5 -95t-69.5 -146t-25 -185z" />
<glyph unicode="&#x160;" horiz-adv-x="1207" d="M157 1194q0 80 25.5 150t82.5 122t145.5 82.5t214.5 30.5q120 0 218.5 -28t165.5 -63l-30 -81q-72 35 -166.5 56t-185.5 21q-194 0 -280 -81.5t-86 -214.5q0 -77 27 -129t75.5 -90.5t115.5 -67.5t150 -56q91 -30 175 -62.5t149 -80t104.5 -117t39.5 -176.5 q0 -104 -36 -183.5t-101.5 -134t-159 -82t-206.5 -27.5q-163 0 -264 29t-171 68l33 91q79 -40 174 -66.5t228 -26.5q86 0 160 19t126 60t82.5 103.5t30.5 149.5q0 90 -32.5 146t-88 92t-127.5 59t-148 49q-79 26 -158 59.5t-141 83t-101.5 122.5t-39.5 174zM298 2036h77 l229 -229l229 229h76l-271 -317h-69z" />
<glyph unicode="&#x161;" horiz-adv-x="976" d="M120 861q0 69 28 121t78 87t116.5 51.5t143.5 16.5q99 0 183 -21t148 -49l-28 -86q-60 28 -138.5 46.5t-164.5 18.5q-126 0 -194.5 -44t-68.5 -132q0 -102 75 -156t186 -85q183 -53 278 -131.5t95 -217.5t-97.5 -218.5t-293.5 -79.5q-98 0 -190.5 22t-152.5 49l27 84 q56 -26 141.5 -46t174.5 -20q148 0 218.5 56t70.5 153q0 56 -23 95.5t-65 69.5t-98.5 50.5t-122.5 41.5q-69 20 -128 47t-102.5 65t-69.5 89t-26 123zM182 1583h77l229 -229l229 229h76l-271 -317h-69z" />
<glyph unicode="&#x178;" horiz-adv-x="1265" d="M42 1559h115l475 -814h2l475 814h115l-537 -912v-647h-108v647zM325 1897q0 33 23 57.5t63 24.5t63 -24.5t23 -57.5t-23 -57t-63 -24t-63 24t-23 57zM766 1897q0 33 22.5 57.5t62.5 24.5q39 0 62 -24.5t23 -57.5t-23 -57t-62 -24q-40 0 -62.5 24t-22.5 57z" />
<glyph unicode="&#x17d;" horiz-adv-x="1248" d="M111 0v81l882 1381h-821v97h950v-82l-879 -1380h896v-97h-1028zM319 2036h77l229 -229l229 229h76l-271 -317h-69z" />
<glyph unicode="&#x17e;" horiz-adv-x="1020" d="M97 0v62l671 967h-618v89h751v-63l-672 -967h690v-88h-822zM203 1583h77l229 -229l229 229h76l-271 -317h-69z" />
<glyph unicode="&#x192;" horiz-adv-x="1263" d="M-5 -130l36 77q32 -16 74.5 -24.5t82.5 -8.5q139 0 195.5 78.5t77.5 225.5l83 613h-217v88h229l29 212q23 179 110 285.5t261 106.5q60 0 109.5 -13t89.5 -33l-35 -77q-33 16 -75.5 24.5t-81.5 8.5q-139 0 -196.5 -79t-77.5 -225l-29 -210h345v-88h-358l-82 -616 q-26 -179 -111.5 -285t-259.5 -106q-60 0 -109.5 13t-89.5 33z" />
<glyph unicode="&#x2c6;" horiz-adv-x="647" d="M18 1270l271 318h69l271 -318h-76l-229 230l-229 -230h-77z" />
<glyph unicode="&#x2c7;" horiz-adv-x="647" d="M18 1583h77l229 -229l229 229h76l-271 -317h-69z" />
<glyph unicode="&#x2d8;" horiz-adv-x="647" d="M23 1572h63q18 -82 79.5 -130.5t158.5 -48.5t158.5 48.5t80.5 130.5h62q-7 -53 -31 -99.5t-64 -81.5t-92 -56t-114 -21t-114.5 21t-91.5 56t-63 81t-32 100z" />
<glyph unicode="&#x2d9;" horiz-adv-x="647" d="M232 1458q0 37 24 62.5t68 25.5t68.5 -25.5t24.5 -62.5q0 -38 -24.5 -63t-68.5 -25t-68 25t-24 63z" />
<glyph unicode="&#x2da;" horiz-adv-x="647" d="M137 1453q0 79 54 133.5t133 54.5t133.5 -54.5t54.5 -133.5t-55 -133t-133 -54q-79 0 -133 54t-54 133zM203 1453q0 -60 35 -95t86 -35t85.5 35t34.5 95t-34.5 95t-85.5 35t-86 -35t-35 -95z" />
<glyph unicode="&#x2db;" horiz-adv-x="647" d="M282 5h58l148 -215h-113z" />
<glyph unicode="&#x2dc;" horiz-adv-x="647" d="M-9 1303q4 79 57.5 134.5t127.5 55.5q51 0 86.5 -17.5t66.5 -39.5t61.5 -39t70.5 -17q62 0 88.5 32t31.5 81h77q-5 -79 -58 -134.5t-128 -55.5q-51 0 -88 17.5t-68 39.5t-61 39t-67 17q-63 0 -90 -32.5t-31 -80.5h-76z" />
<glyph unicode="&#x2dd;" horiz-adv-x="647" d="M132 1285l169 289h95l-206 -289h-58zM455 1285l170 289h95l-206 -289h-59z" />
<glyph unicode="&#x3a9;" horiz-adv-x="1689" d="M166 890q0 158 47.5 285.5t135.5 216.5t213 138t283 49q155 0 281 -49t214 -138t135.5 -216t47.5 -286q0 -139 -43 -258.5t-105.5 -219.5t-134.5 -179.5t-129 -137.5h322v-95h-448v81q63 51 138.5 127.5t139.5 174.5t107.5 216.5t43.5 254.5q0 151 -39 267.5t-113 196.5 t-179.5 120.5t-237.5 40.5t-237.5 -40.5t-179.5 -120.5t-113 -196.5t-39 -267.5q0 -136 42 -254.5t107 -216.5t139 -174.5t138 -127.5v-81h-445v95h319q-57 58 -129 137.5t-134.5 179.5t-104.5 220.5t-42 257.5z" />
<glyph unicode="&#x3c0;" horiz-adv-x="1369" d="M84 1071q46 18 121 32.5t179 14.5h891v-95h-292v-736q0 -102 33 -161t111 -59q39 0 73 10.5t52 21.5l25 -71q-26 -18 -70.5 -30t-95.5 -12q-69 0 -114.5 27t-72 71t-37 101.5t-10.5 119.5v718h-387v-614q0 -108 -18.5 -214.5t-45.5 -194.5h-104q33 102 47.5 195.5 t14.5 213.5v614q-95 -3 -165.5 -15t-121.5 -32z" />
<glyph unicode="&#xe00;" horiz-adv-x="450" />
<glyph unicode="&#xe01;" horiz-adv-x="1371" d="M130 949q23 67 71.5 133t119 118t158.5 83t188 31q123 0 217.5 -38t160.5 -104t100.5 -156.5t34.5 -196.5v-819h-109v819q0 181 -104 290.5t-300 109.5q-153 0 -259.5 -76t-160.5 -183l219 -171v-21q-80 -28 -121.5 -90t-41.5 -144v-534h-109v521q0 88 38.5 158.5 t112.5 102.5z" />
<glyph unicode="&#xe02;" horiz-adv-x="1254" d="M170 409v183q0 67 36.5 126t80.5 115.5t81 114t37 119.5v68q0 37 -15 54t-54 17h-153v90h153q92 0 133 -44t41 -121v-64q0 -69 -36.5 -128.5t-80.5 -116t-79.5 -113t-35.5 -117.5v-185q0 -188 85.5 -259t252.5 -71q166 0 252 71.5t86 258.5v889h108v-887 q0 -225 -114.5 -326t-331.5 -101q-218 0 -332 101.5t-114 325.5z" />
<glyph unicode="&#xe03;" horiz-adv-x="1267" d="M97 1222v92l153 -95q51 86 143 86q148 0 148 -168v-68q0 -69 -39 -129.5t-87.5 -118t-88 -116t-39.5 -117.5v-181q0 -188 86 -259t252 -71t252 71.5t86 258.5v889h108v-887q0 -225 -114.5 -326t-331.5 -101q-218 0 -332 101.5t-114 325.5v179q0 66 40 126.5t88.5 118 t89 116t40.5 120.5v68q0 74 -62 73q-39 0 -64.5 -26.5t-41.5 -65.5z" />
<glyph unicode="&#xe04;" horiz-adv-x="1415" d="M192 0v824q0 101 32.5 190.5t97 156.5t162 105t225.5 38q127 0 223.5 -38t161.5 -105t97.5 -156.5t32.5 -190.5v-824h-109v824q0 178 -102.5 286.5t-303.5 108.5q-202 0 -305 -107t-103 -286v-329q35 88 118 148.5t199 60.5h146v-99h-146q-123 0 -202.5 -73t-114.5 -194 v-340h-109z" />
<glyph unicode="&#xe05;" horiz-adv-x="1429" d="M194 0v949q0 162 73 249t212 116l236 -164l236 164q139 -30 212 -116.5t73 -248.5v-949h-109v951q0 113 -45 179.5t-124 86.5l-243 -164l-243 164q-79 -20 -124 -86.5t-45 -179.5v-454q35 88 118 148.5t199 60.5h146v-99h-146q-123 0 -202.5 -73t-114.5 -194v-340h-109z " />
<glyph unicode="&#xe06;" horiz-adv-x="1369" d="M93 1222v92l152 -95q51 86 144 86q148 0 148 -168v-68q0 -69 -35.5 -129.5t-80 -118t-80.5 -116t-36 -117.5v-192q31 -67 75 -126.5t101.5 -102t126 -66.5t145.5 -24q174 0 245 104t71 285v830h108v-833q0 -236 -100.5 -358.5t-303.5 -122.5q-141 0 -262.5 62t-200.5 199 l-16 -243h-97v588q0 66 37 126.5t80.5 118t81 116t37.5 120.5v68q0 74 -62 73q-40 0 -65.5 -26.5t-42.5 -65.5z" />
<glyph unicode="&#xe07;" horiz-adv-x="1254" d="M37 1296h104l382 -1201h27q91 0 174.5 43t147 122.5t101.5 194.5t38 256q0 132 -26.5 227.5t-74 158t-109 92.5t-130.5 30q-48 0 -83 -8t-65 -19l-16 88q31 14 78 24t91 10q97 0 179 -38t141 -113t91.5 -188.5t32.5 -263.5q0 -172 -44 -303.5t-121.5 -222t-182.5 -138 t-226 -47.5h-104z" />
<glyph unicode="&#xe08;" horiz-adv-x="1228" d="M64 1150q86 67 210 115.5t276 48.5q133 0 235.5 -44t173 -125t108 -194.5t37.5 -248.5q0 -153 -40.5 -283t-113.5 -222.5t-172.5 -144.5t-217.5 -52h-107l-135 576q-14 58 -73 58h-90v90h92q89 0 123.5 -33t48.5 -94l120 -507h40q79 0 153 40t132.5 116t95 189t36.5 263 q0 250 -115 385.5t-333 135.5q-150 0 -254 -44t-195 -104z" />
<glyph unicode="&#xe09;" horiz-adv-x="1343" d="M106 1157q88 60 216.5 108.5t300.5 48.5q132 0 231.5 -39t165.5 -109.5t99.5 -166.5t33.5 -210v-789h-98l-15 243q-80 -132 -198 -196.5t-259 -64.5q-181 0 -266 87.5t-85 305.5v204q0 55 -49 55h-72v90h72q84 0 120.5 -38.5t36.5 -106.5v-202q0 -81 12 -138.5t42 -94 t80.5 -52t130.5 -15.5q76 0 143 25.5t122 67.5t99.5 100.5t74.5 125.5v393q0 201 -104.5 315.5t-314.5 114.5q-150 0 -267 -42t-208 -103z" />
<glyph unicode="&#xe0a;" horiz-adv-x="1258" d="M170 409v183q0 67 36.5 126t80.5 115.5t81 114t37 119.5v68q0 37 -15 54t-54 17h-153v90h153q92 0 133 -44t41 -121v-64q0 -69 -36.5 -128.5t-80.5 -116t-79.5 -113t-35.5 -117.5v-185q0 -188 86.5 -259t253.5 -71q166 0 253 71.5t87 258.5v266q0 104 -50.5 164.5 t-132.5 60.5h-55l-16 47l261 351h121l-253 -329q111 -11 172.5 -93.5t61.5 -197.5v-267q0 -225 -116 -326t-333 -101q-218 0 -333 101.5t-115 325.5z" />
<glyph unicode="&#xe0b;" horiz-adv-x="1267" d="M97 1222v92l153 -95q51 86 143 86q148 0 148 -168v-68q0 -69 -39 -129.5t-87.5 -118t-88 -116t-39.5 -117.5v-181q0 -188 87 -259t253 -71t253 71.5t87 258.5v266q0 104 -50.5 164.5t-132.5 60.5h-55l-16 47l261 351h121l-253 -329q111 -11 172.5 -93.5t61.5 -197.5v-267 q0 -225 -115.5 -326t-333.5 -101t-333 101.5t-115 325.5v179q0 66 40 126.5t88.5 118t89 116t40.5 120.5v68q0 74 -62 73q-39 0 -64.5 -26.5t-41.5 -65.5z" />
<glyph unicode="&#xe0c;" horiz-adv-x="2107" d="M130 949q23 67 70 133t115.5 118t153 83t181.5 31q117 0 208 -38t150 -104t89 -156.5t30 -196.5v-423q30 -67 73 -126.5t97 -102t118 -66.5t138 -24t124 27.5t78.5 75t40 111t11.5 137.5v868h109v-870q0 -99 -18.5 -181.5t-60 -140.5t-107.5 -90t-160 -32q-139 0 -256 68 t-183 193l-16 -243h-97v819q0 181 -90.5 290.5t-277.5 109.5q-144 0 -246.5 -76t-156.5 -183l219 -171v-21q-80 -28 -121.5 -90t-41.5 -144v-362q0 -82 79 -82h122v-90h-131q-81 0 -130 42t-49 124v355q0 88 38.5 158.5t112.5 102.5z" />
<glyph unicode="&#xe0d;" horiz-adv-x="2107" d="M130 949q23 67 70 133t115.5 118t153 83t181.5 31q117 0 207 -38t148.5 -104t87.5 -156.5t29 -196.5v-414q0 -65 12 -121.5t42 -98t80.5 -66t130.5 -24.5q68 0 131 24.5t116 67t96 101.5t72 127v881h110v-1137q0 -263 -121.5 -381t-323.5 -118q-139 0 -242 31t-167 73 l28 86q64 -40 155.5 -67.5t200.5 -27.5q176 0 266 91.5t90 315.5v99q-65 -125 -179.5 -193t-241.5 -68q-101 0 -170.5 29t-112.5 81t-61.5 126t-18.5 166v417q0 181 -88.5 290.5t-275.5 109.5q-144 0 -246.5 -76t-156.5 -183l219 -171v-21q-80 -28 -121.5 -90t-41.5 -144 v-362q0 -82 79 -82h122v-90h-131q-81 0 -130 42t-49 124v355q0 88 38.5 158.5t112.5 102.5z" />
<glyph unicode="&#xe0e;" horiz-adv-x="1383" d="M88 0v90h84q69 0 69 74v357q0 88 40.5 154.5t107.5 99.5l-248 160q23 66 72.5 135t120.5 123.5t160 87.5t189 33q123 0 218 -38t159 -104t98 -156.5t34 -196.5v-1282h-130q-60 53 -153.5 97t-225.5 44q-107 0 -186.5 -37t-147.5 -102l-29 93q55 57 140.5 99t224.5 42 q115 0 223 -45.5t175 -109.5v1201q0 181 -102 290.5t-298 109.5q-77 0 -142.5 -23t-120 -60t-95 -84t-64.5 -96l258 -174v-20q-79 -29 -124.5 -87.5t-45.5 -140.5v-375q0 -83 -44 -121t-124 -38h-93z" />
<glyph unicode="&#xe0f;" horiz-adv-x="1383" d="M88 0v90h84q69 0 69 74v357q0 88 40.5 154.5t107.5 99.5l-248 160q23 66 72.5 135t120.5 123.5t160 87.5t189 33q123 0 218 -38t159 -104t98 -156.5t34 -196.5v-1282h-114l-307 185q-40 -97 -115 -148t-163 -51t-161 23t-114 52l32 92q44 -30 107.5 -53t130.5 -23 q97 0 156.5 67t84.5 173l354 -210v1175q0 181 -102 290.5t-298 109.5q-77 0 -142.5 -23t-120 -60t-95 -84t-64.5 -96l258 -174v-20q-79 -29 -124.5 -87.5t-45.5 -140.5v-375q0 -83 -44 -121t-124 -38h-93z" />
<glyph unicode="&#xe10;" horiz-adv-x="1228" d="M64 1150q86 67 210 115.5t276 48.5q91 0 167 -23t140 -63l141 159h124l-192 -216q86 -84 130 -203.5t44 -265.5q0 -153 -40.5 -283t-113.5 -222.5t-172.5 -144.5t-217.5 -52h-107l-135 576q-14 58 -73 58h-90v90h92q89 0 123.5 -33t48.5 -94l120 -507h40q79 0 153 40 t132.5 116t95 189t36.5 263q0 237 -115 379t-333 142q-150 0 -255 -41t-194 -107zM194 -373h157q77 0 136 43t89 103q35 -60 91.5 -103t138.5 -43h115v137h95v-227h-201q-144 0 -241 121q-84 -120 -238 -121h-142v90z" />
<glyph unicode="&#xe11;" horiz-adv-x="1387" d="M97 1222v92l153 -95q51 86 143 86q148 0 148 -164q60 67 147 120t196 53q64 0 121 -23t99 -73t66 -128.5t24 -191.5v-898h-108v896q0 181 -52.5 252t-156.5 71q-84 0 -183.5 -62t-186 -160.5t-144.5 -221t-58 -243.5v-532h-108v519q0 92 23 173t59 149.5t77.5 122.5 t80.5 94v79q0 74 -62 73q-39 0 -64.5 -26.5t-41.5 -65.5z" />
<glyph unicode="&#xe12;" horiz-adv-x="2248" d="M125 620q0 153 36 272t97.5 206t142 141.5t171.5 74.5l190 -141l189 141q128 -26 199.5 -105.5t71.5 -241.5v-571q30 -67 73 -126.5t97 -102t119 -66.5t139 -24q166 0 232 104t66 285v830h110v-833q0 -236 -95 -358.5t-292 -122.5q-136 0 -251 62t-194 199l-16 -243h-97 v970q0 113 -39.5 171t-113.5 76l-198 -137l-188 130q-67 -13 -129.5 -58.5t-109 -120.5t-74 -176.5t-27.5 -227.5q0 -130 29 -231.5t79.5 -171t122.5 -106.5t158 -37q97 0 163 32l20 -82q-77 -45 -195 -45q-99 0 -187 41.5t-154.5 121.5t-105.5 198.5t-39 272.5z" />
<glyph unicode="&#xe13;" horiz-adv-x="2107" d="M130 949q23 67 70 133t115.5 118t153 83t181.5 31q117 0 207 -38t148.5 -104t87.5 -156.5t29 -196.5v-433q0 -64 12 -121t42 -98.5t80.5 -65.5t130.5 -24q68 0 131 24t116 66.5t96 102t72 126.5v900h110v-1296h-97l-17 243q-65 -125 -179.5 -193t-241.5 -68 q-101 0 -170.5 29t-112.5 81t-61.5 126t-18.5 166v435q0 181 -88.5 290.5t-275.5 109.5q-144 0 -246.5 -76t-156.5 -183l219 -171v-21q-80 -28 -121.5 -90t-41.5 -144v-362q0 -82 79 -82h122v-90h-131q-81 0 -130 42t-49 124v355q0 88 38.5 158.5t112.5 102.5z" />
<glyph unicode="&#xe14;" horiz-adv-x="1409" d="M125 627q0 139 38 264t112 218.5t184.5 149t253.5 55.5q128 0 222 -41t157 -112t94 -167t31 -203v-791h-108v793q0 192 -97.5 309t-296.5 117q-123 0 -214.5 -47.5t-150 -129.5t-87.5 -189.5t-29 -227.5q0 -144 33.5 -246.5t89 -170t128.5 -99.5t149 -32q46 0 80 6.5 t66 18.5l19 -79q-71 -38 -174 -37q-93 0 -182 37t-160 114.5t-114.5 199.5t-43.5 290z" />
<glyph unicode="&#xe15;" horiz-adv-x="1429" d="M125 620q0 153 36 272t97.5 206t142 141.5t171.5 74.5l194 -141l194 141q128 -26 202 -105.5t74 -241.5v-967h-109v970q0 113 -41.5 171t-115.5 76l-204 -137l-192 130q-67 -13 -129.5 -58.5t-109 -120.5t-74 -176.5t-27.5 -227.5q0 -130 29 -231.5t79.5 -171 t122.5 -106.5t158 -37q50 0 88.5 8t74.5 26l20 -82q-79 -47 -195 -47q-99 0 -187 41.5t-154.5 121.5t-105.5 198.5t-39 272.5z" />
<glyph unicode="&#xe16;" horiz-adv-x="1374" d="M130 949q23 67 71.5 133t119 118t158.5 83t188 31q123 0 218.5 -38t161.5 -104t101 -156.5t35 -196.5v-819h-109v819q0 181 -105.5 290.5t-301.5 109.5q-153 0 -259.5 -76t-160.5 -183l219 -171v-21q-80 -28 -121.5 -90t-41.5 -144v-362q0 -82 79 -82h122v-90h-131 q-81 0 -130 42t-49 124v355q0 88 38.5 158.5t112.5 102.5z" />
<glyph unicode="&#xe17;" horiz-adv-x="1400" d="M197 0v1296h97l16 -243q95 115 222.5 188t282.5 73q194 0 293.5 -110.5t99.5 -337.5v-866h-109v863q0 181 -68 268.5t-228 87.5q-71 0 -143 -24t-138.5 -65.5t-123 -98.5t-93.5 -121v-910h-108z" />
<glyph unicode="&#xe18;" horiz-adv-x="1248" d="M123 1009q0 139 108.5 222t342.5 83q146 0 267.5 -25.5t207.5 -64.5l-24 -83q-84 40 -198 61.5t-251 21.5q-190 0 -269.5 -55.5t-79.5 -159.5q0 -95 53 -142.5t164 -65.5l401 -63q155 -26 212.5 -97t57.5 -190v-118q0 -104 -26.5 -172t-84 -109t-152.5 -55.5t-229 -14.5 q-137 0 -229.5 18t-151.5 61t-84.5 114.5t-25.5 178.5v105h104v-105q0 -84 18.5 -138t64 -86.5t119.5 -45.5t185 -13q113 0 188 11t120 39.5t62.5 79.5t17.5 132v120q0 93 -44 137t-132 57l-395 59q-153 26 -235 96t-82 207z" />
<glyph unicode="&#xe19;" horiz-adv-x="1369" d="M192 444v852h109v-850q0 -180 63.5 -274.5t236.5 -94.5q77 0 147.5 25.5t130.5 67.5t107.5 100.5t77.5 125.5v900h109v-1296h-97l-16 243q-79 -132 -208.5 -196.5t-270.5 -64.5q-389 0 -389 462z" />
<glyph unicode="&#xe1a;" horiz-adv-x="1365" d="M192 455v841h109v-841q0 -185 92.5 -281.5t289.5 -96.5q196 0 288.5 97t92.5 281v841h109v-841q0 -231 -121.5 -352t-368.5 -121q-248 0 -369.5 121.5t-121.5 351.5z" />
<glyph unicode="&#xe1b;" horiz-adv-x="1365" d="M192 455v841h109v-841q0 -185 92.5 -281.5t289.5 -96.5q196 0 288.5 97t92.5 281v1281h109v-1281q0 -231 -121.5 -352t-368.5 -121q-248 0 -369.5 121.5t-121.5 351.5z" />
<glyph unicode="&#xe1c;" horiz-adv-x="1480" d="M197 0v1129q0 83 48.5 125t129.5 42h118v-90h-109q-37 0 -59 -21t-22 -61v-749q0 -62 -4.5 -127t-13.5 -130h2q14 41 38 100.5t43 96.5l326 617h103l318 -617q18 -37 41.5 -96.5t37.5 -100.5h3q-9 64 -14.5 129t-5.5 128v921h108v-1296h-121l-354 692q-26 50 -40.5 90 t-21.5 72h-6q-6 -32 -21 -72t-41 -90l-362 -692h-121z" />
<glyph unicode="&#xe1d;" horiz-adv-x="1480" d="M197 0v1129q0 83 48.5 125t129.5 42h118v-90h-109q-37 0 -59 -21t-22 -61v-749q0 -62 -4.5 -127t-13.5 -130h2q14 41 38 100.5t43 96.5l326 617h103l318 -617q18 -37 41.5 -96.5t37.5 -100.5h3q-9 64 -14.5 129t-5.5 128v1361h108v-1736h-121l-354 692q-26 50 -40.5 90 t-21.5 72h-6q-6 -32 -21 -72t-41 -90l-362 -692h-121z" />
<glyph unicode="&#xe1e;" horiz-adv-x="1554" d="M97 1296h109l152 -951q9 -60 13 -111t6 -119h5q11 65 24 115t29 99l294 903h97l294 -903q16 -49 29 -98.5t24 -115.5h4q3 67 7 118.5t13 111.5l152 951h109l-210 -1296h-124l-300 914q-14 44 -26 92.5t-18 111.5h-5q-7 -63 -18.5 -111.5t-25.5 -92.5l-300 -914h-124z" />
<glyph unicode="&#xe1f;" horiz-adv-x="1554" d="M97 1296h109l152 -951q9 -60 13 -111t6 -119h5q11 65 24 115t29 99l313 903h97l308 -903q15 -49 28 -98.5t25 -115.5h4q2 67 5.5 118.5t12.5 111.5l165 1391h104l-212 -1736h-123l-322 914q-14 44 -25.5 92.5t-17.5 111.5h-6q-7 -63 -18 -111.5t-25 -92.5l-317 -914h-124 z" />
<glyph unicode="&#xe20;" horiz-adv-x="1383" d="M88 0v90h84q69 0 69 74v357q0 88 40.5 154.5t107.5 99.5l-248 160q23 66 72.5 135t120.5 123.5t160 87.5t189 33q123 0 218 -38t159 -104t98 -156.5t34 -196.5v-819h-109v819q0 181 -102 290.5t-298 109.5q-77 0 -142.5 -23t-120 -60t-95 -84t-64.5 -96l258 -174v-20 q-79 -29 -124.5 -87.5t-45.5 -140.5v-375q0 -83 -44 -121t-124 -38h-93z" />
<glyph unicode="&#xe21;" horiz-adv-x="1369" d="M197 0v1296h108v-900q31 -67 75 -126.5t101.5 -102t126 -66.5t145.5 -24q174 0 245 104t71 285v830h108v-833q0 -236 -100.5 -358.5t-303.5 -122.5q-141 0 -262.5 62t-200.5 199l-16 -243h-97z" />
<glyph unicode="&#xe22;" horiz-adv-x="1316" d="M125 382q0 125 58 216t181 133q-126 33 -182.5 104.5t-56.5 178.5q0 125 77.5 210.5t223.5 85.5q58 0 107.5 -11.5t80.5 -23.5l-17 -85q-26 13 -69.5 21t-90.5 8q-104 0 -156 -57.5t-52 -152.5q0 -53 24.5 -93.5t63.5 -69.5t87.5 -44.5t97.5 -15.5h165l9 -97h-142 q-64 0 -119 -23t-95 -64.5t-63 -98.5t-23 -121q0 -81 32 -139t87.5 -95t128.5 -54t152 -17q197 0 289.5 97t92.5 281v841h108v-841q0 -231 -121.5 -352t-368.5 -121q-111 0 -203.5 25.5t-161 75t-106.5 124.5t-38 175z" />
<glyph unicode="&#xe23;" horiz-adv-x="1117" d="M115 81l31 85q60 -39 165.5 -67t225.5 -28q356 0 357 262q0 69 -35 117.5t-89.5 82.5t-120.5 56t-128 40q-69 21 -139 48t-125.5 67t-90 99.5t-34.5 147.5q0 153 107.5 238t316.5 85q120 0 219.5 -26.5t166.5 -59.5l-26 -82q-66 33 -151 55.5t-198 22.5 q-176 0 -253.5 -60t-77.5 -168q0 -67 25.5 -111.5t70.5 -76t105 -52t130 -41.5q62 -18 137.5 -45t140.5 -70.5t109 -111t44 -164.5q0 -157 -111.5 -249.5t-342.5 -92.5q-133 0 -248 30t-181 69z" />
<glyph unicode="&#xe24;" horiz-adv-x="1374" d="M130 949q23 67 71.5 133t119 118t158.5 83t188 31q123 0 218.5 -38t161.5 -104t101 -156.5t35 -196.5v-1282h-109v1282q0 181 -105.5 290.5t-301.5 109.5q-153 0 -259.5 -76t-160.5 -183l219 -171v-21q-80 -28 -121.5 -90t-41.5 -144v-362q0 -82 79 -82h122v-90h-131 q-81 0 -130 42t-49 124v355q0 88 38.5 158.5t112.5 102.5z" />
<glyph unicode="&#xe25;" horiz-adv-x="1294" d="M97 354q0 412 563 412h336v82q0 183 -85 277t-270 94q-139 0 -247.5 -37.5t-192.5 -95.5l-37 82q74 54 197 100t277 46q225 0 345.5 -123.5t120.5 -340.5v-850h-108v676h-338q-215 0 -333.5 -72t-118.5 -248q0 -77 25.5 -129.5t68 -87.5t98 -51.5t116.5 -16.5 q60 0 105 11t85 29l20 -83q-39 -22 -95.5 -34t-118.5 -12q-84 0 -159 23t-132 69t-89.5 115.5t-32.5 164.5z" />
<glyph unicode="&#xe26;" horiz-adv-x="1420" d="M88 0v90h84q69 0 69 74v357q0 88 40.5 154.5t107.5 99.5l-248 160q23 66 72.5 135t120.5 123.5t160 87.5t189 33q123 0 218 -38t159 -104t98 -156.5t34 -196.5v-1282h-109v1282q0 181 -102 290.5t-298 109.5q-77 0 -142.5 -23t-120 -60t-95 -84t-64.5 -96l258 -174v-20 q-79 -29 -124.5 -87.5t-45.5 -140.5v-375q0 -83 -44 -121t-124 -38h-93z" />
<glyph unicode="&#xe27;" horiz-adv-x="1157" d="M84 1197q66 41 175 79t231 38q130 0 231 -46t170 -131.5t105 -208t36 -275.5q0 -338 -137.5 -504.5t-397.5 -166.5q-139 0 -239.5 30t-167.5 69l28 91q64 -40 159.5 -67.5t208.5 -27.5q210 0 323.5 135t113.5 441q0 276 -106 421t-329 145q-115 0 -213.5 -33t-166.5 -75z " />
<glyph unicode="&#xe28;" horiz-adv-x="1415" d="M192 0v824q0 101 32.5 190.5t97 156.5t162 105t225.5 38q90 0 166 -22t136 -60l139 155h125l-192 -216q68 -67 104.5 -158.5t36.5 -193.5v-819h-109v819q0 88 -26.5 162t-77.5 127.5t-127 82t-175 28.5q-202 0 -305 -107t-103 -286v-329q35 88 118 148.5t199 60.5h146 v-99h-146q-123 0 -202.5 -73t-114.5 -194v-340h-109z" />
<glyph unicode="&#xe29;" horiz-adv-x="1392" d="M192 455v841h109v-841q0 -185 92.5 -281.5t289.5 -96.5q196 0 288.5 97t92.5 281v269h-322v91h322v481h109v-481h183l-23 -91h-160v-269q0 -231 -121.5 -352t-368.5 -121q-248 0 -369.5 121.5t-121.5 351.5z" />
<glyph unicode="&#xe2a;" horiz-adv-x="1294" d="M97 354q0 412 563 412h336v76q0 183 -85 280t-270 97q-139 0 -247.5 -37.5t-192.5 -95.5l-37 82q74 54 197 100t277 46q82 0 152.5 -19.5t123.5 -56.5l135 149h124l-188 -210q118 -129 119 -332v-845h-108v676h-338q-215 0 -333.5 -72t-118.5 -248q0 -77 25.5 -129.5 t68 -87.5t98 -51.5t116.5 -16.5q60 0 105 11t85 29l20 -83q-39 -22 -95.5 -34t-118.5 -12q-84 0 -159 23t-132 69t-89.5 115.5t-32.5 164.5z" />
<glyph unicode="&#xe2b;" horiz-adv-x="1320" d="M197 0v1296h108v-600l715 600h155l-448 -373q132 -22 208 -100t116 -222l168 -601h-110l-164 590q-40 128 -108.5 190t-200.5 70l-331 -276v-574h-108z" />
<glyph unicode="&#xe2c;" horiz-adv-x="1480" d="M197 0v1296h106v-921q0 -62 -4.5 -127t-13.5 -130h2q14 41 37 100.5t42 96.5l319 617h101l327 -617q18 -37 42.5 -96.5t38.5 -100.5h3q-9 64 -14.5 129t-5.5 128v657q0 104 -50.5 161t-130.5 57h-57l-16 46l299 440h120l-293 -422q113 -11 175.5 -87.5t60.5 -189.5v-1037 h-121l-363 692q-26 50 -41 90t-22 72h-5q-6 -32 -21.5 -72t-40.5 -90l-353 -692h-121z" />
<glyph unicode="&#xe2d;" horiz-adv-x="1318" d="M130 435v75q0 97 55.5 155.5t159.5 58.5h201v-90h-197q-51 0 -82 -33.5t-31 -93.5v-72q0 -166 94 -262t293 -96q236 0 349.5 134t113.5 423q0 291 -125.5 438t-349.5 147q-125 0 -233.5 -41t-192.5 -104l-41 81q83 60 203.5 109.5t272.5 49.5q137 0 244.5 -47.5 t180.5 -136t111 -216.5t38 -287q0 -317 -137.5 -481t-433.5 -164q-241 0 -367 121.5t-126 331.5z" />
<glyph unicode="&#xe2e;" horiz-adv-x="1318" d="M130 435v75q0 97 55.5 155.5t159.5 58.5h201v-90h-197q-51 0 -82 -33.5t-31 -93.5v-72q0 -166 94 -262t293 -96q236 0 349.5 134t113.5 423q0 291 -125.5 438t-349.5 147q-125 0 -233.5 -41t-192.5 -104l-41 81q83 60 203.5 109.5t272.5 49.5q160 0 285 -71l129 144h125 l-178 -197q104 -88 158.5 -231.5t54.5 -331.5q0 -317 -137.5 -481t-433.5 -164q-241 0 -367 121.5t-126 331.5z" />
<glyph unicode="&#xe2f;" horiz-adv-x="1193" d="M106 1194v102h104v-104q0 -185 67.5 -272t203.5 -87q86 0 162.5 37t133 93.5t90.5 127.5t34 141v64h97v-1296h-110v1002q-22 -51 -63 -96t-94 -80t-119 -55.5t-142 -20.5q-99 0 -168.5 32.5t-112.5 91t-63 141t-20 179.5z" />
<glyph unicode="&#xe30;" horiz-adv-x="654" d="M106 382v69h104v-53q0 -47 21 -66.5t74 -19.5h234v-89h-247q-84 0 -135 37.5t-51 121.5zM106 1069v70h104v-53q0 -46 21 -66t74 -20h234v-90h-247q-84 0 -135 37.5t-51 121.5z" />
<glyph unicode="&#xe31;" d="M-629 1650v83h104v-66q0 -47 20.5 -66.5t73.5 -19.5h577v-91h-590q-84 0 -134.5 38t-50.5 122z" />
<glyph unicode="&#xe32;" horiz-adv-x="1045" d="M28 1173q67 53 174.5 97t228.5 44q214 0 318.5 -120t104.5 -346v-848h-109v857q0 194 -77.5 278t-230.5 84q-110 0 -208.5 -37.5t-170.5 -91.5z" />
<glyph unicode="&#xe33;" horiz-adv-x="1045" d="M-442 1632q0 83 55.5 137.5t134.5 54.5t134.5 -54.5t55.5 -137.5q0 -84 -56 -138t-134 -54q-79 0 -134.5 54t-55.5 138zM-364 1632q0 -53 35 -85t77 -32t76.5 32t34.5 85t-34.5 84t-76.5 31t-77 -31t-35 -84zM28 1173q67 53 174.5 97t228.5 44q214 0 318.5 -120 t104.5 -346v-848h-109v857q0 194 -77.5 278t-230.5 84q-110 0 -208.5 -37.5t-170.5 -91.5z" />
<glyph unicode="&#xe34;" d="M-1146 1490v91h954v-91h-954z" />
<glyph unicode="&#xe35;" d="M-1146 1490v91h850v229h104v-320h-954z" />
<glyph unicode="&#xe36;" d="M-1146 1490v91h685q-11 13 -20 35t-9 43q0 71 49.5 121.5t116.5 50.5q69 0 119 -50t50 -122q0 -69 -49.5 -119t-119.5 -50h-822zM-405 1659q0 -40 24.5 -62.5t56.5 -22.5q35 0 59 23t24 62q0 42 -24 65t-59 23q-33 0 -57 -23t-24 -65z" />
<glyph unicode="&#xe37;" d="M-1146 1490v91h642v229h99v-234h113v234h100v-320h-954z" />
<glyph unicode="&#xe38;" d="M-426 -183h81q75 0 114 -35.5t39 -119.5v-206h-104v211q0 37 -15.5 50.5t-44.5 13.5h-70v86z" />
<glyph unicode="&#xe39;" d="M-797 -183h209v-168q0 -80 36 -107.5t110 -27.5q75 0 110.5 27.5t35.5 107.5v168h104v-168q0 -221 -250 -221t-250 221v82h-105v86z" />
<glyph unicode="&#xe3a;" d="M-360 -273q0 44 31 75.5t77 31.5t77 -31.5t31 -75.5q0 -45 -31 -76t-77 -31t-77 31t-31 76z" />
<glyph unicode="&#xe3f;" horiz-adv-x="1263" d="M197 0v1504h441v232h82v-234q181 -16 283.5 -111t102.5 -260q0 -67 -21 -125.5t-56.5 -103.5t-83 -75t-97.5 -43q64 -7 122.5 -33.5t104 -72.5t72 -111t26.5 -148q0 -174 -111 -288.5t-342 -130.5v-232h-82v232h-441zM305 97h333v634h-333v-634zM305 824h333v583h-333 v-583zM720 99q178 12 260 93t82 227q0 162 -91.5 230.5t-250.5 79.5v-630zM720 826q125 16 200.5 91t75.5 214q0 128 -72 195t-204 79v-579z" />
<glyph unicode="&#xe40;" horiz-adv-x="508" d="M201 0v1296h106v-1296h-106z" />
<glyph unicode="&#xe41;" horiz-adv-x="961" d="M201 0v1296h106v-1296h-106zM655 0v1296h107v-1296h-107z" />
<glyph unicode="&#xe42;" horiz-adv-x="572" d="M-5 1905q75 120 202 188.5t287 68.5q123 0 202.5 -21t132.5 -41l-26 -89q-60 26 -141.5 41t-158.5 15q-118 0 -215 -41t-170 -129q133 -71 195.5 -202t62.5 -288v-1407h-107v1426q0 102 -28 176t-67 126t-84 85t-80 55z" />
<glyph unicode="&#xe43;" horiz-adv-x="572" d="M-53 1981q28 33 66 65t85.5 57.5t103 42t118.5 16.5q81 0 142 -24.5t102 -65t61 -93.5t20 -109q0 -97 -43.5 -167.5t-96 -139t-96 -142.5t-43.5 -173v-1248h-107v1277q0 93 44 171t96 148.5t96 136t44 139.5q0 82 -53 138.5t-168 56.5q-93 0 -179 -43t-155 -117z" />
<glyph unicode="&#xe44;" horiz-adv-x="572" d="M-93 2041v90h694v-88q-113 -62 -174 -169.5t-61 -232.5v-1641h-107v1594q0 139 52.5 259.5t163.5 187.5h-568z" />
<glyph unicode="&#xe45;" horiz-adv-x="1045" d="M28 1173q67 53 174.5 97t228.5 44q214 0 318.5 -120t104.5 -346v-1311h-109v1320q0 194 -77.5 278t-230.5 84q-110 0 -208.5 -37.5t-170.5 -91.5z" />
<glyph unicode="&#xe46;" horiz-adv-x="1263" d="M125 1025q0 58 25.5 108t67 88t94 62t105.5 31l180 -141l187 141q132 -13 207.5 -101.5t75.5 -252.5v-1423h-109v1437q0 95 -43 160t-112 74l-204 -141l-201 143q-31 -2 -59.5 -17.5t-52 -40.5t-38 -57.5t-14.5 -69.5q0 -97 55.5 -149t150.5 -52q46 0 92 13l18 -80 q-55 -20 -122 -21q-53 0 -107 15t-97 48.5t-71 89.5t-28 136z" />
<glyph unicode="&#xe47;" d="M-967 1676q0 37 14 74t40.5 66.5t68 47t96.5 17.5h479v-83h-471q-60 0 -95 -33.5t-35 -90.5q0 -47 33.5 -81t81.5 -34q53 0 82.5 24.5t40.5 64.5h82q11 -40 41 -54.5t65 -14.5h175v-89h-166q-42 0 -90.5 22.5t-64.5 79.5q-13 -57 -64.5 -82.5t-104.5 -25.5 q-100 0 -154 56.5t-54 135.5z" />
<glyph unicode="&#xe48;" d="M-294 1937v282h100v-282h-100z" />
<glyph unicode="&#xe49;" d="M-607 2150v81h139q49 0 76.5 -23.5t27.5 -83.5v-71q0 -33 33 -33h303v-83h-326q-106 0 -107 97v72q0 44 -43 44h-103z" />
<glyph unicode="&#xe4a;" d="M-658 2041q0 64 39.5 111t106.5 65l100 -72l107 74q58 -4 96.5 -50.5t38.5 -103.5q0 -12 -2 -36t-7 -39q51 20 76.5 56.5t25.5 103.5q0 26 -8 53.5t-14 41.5h94q7 -13 15 -38t8 -59q0 -35 -14.5 -73.5t-43.5 -68.5t-73 -49.5t-99 -19.5h-51l-8 24q7 9 14 34t7 41 q0 29 -15 60t-36 37l-114 -68l-110 73q-12 -5 -18.5 -17t-13 -28.5t-8.5 -32t-2 -24.5q0 -26 3.5 -53t13.5 -51h-86q-11 21 -16.5 54.5t-5.5 54.5z" />
<glyph unicode="&#xe4b;" d="M-463 2100v75l174 -2l-3 162h95l-2 -162l176 2v-75l-176 2l2 -165h-95l3 165z" />
<glyph unicode="&#xe4c;" d="M-470 1727v66q0 71 47.5 118t142.5 47h220v-83h-203q-60 0 -82.5 -26.5t-22.5 -71.5v-50h-102z" />
<glyph unicode="&#xe4d;" d="M-442 1632q0 83 55.5 137.5t134.5 54.5t134.5 -54.5t55.5 -137.5q0 -84 -56 -138t-134 -54q-79 0 -134.5 54t-55.5 138zM-364 1632q0 -53 35 -85t77 -32t76.5 32t34.5 85t-34.5 84t-76.5 31t-77 -31t-35 -84z" />
<glyph unicode="&#xe4e;" d="M-715 1669q0 35 14 67t44 56.5t77.5 36t111.5 2.5q-26 20 -35 42t-9 50q0 42 36 81t110 39h105l18 -71h-95q-53 0 -71.5 -22t-18.5 -48q0 -21 14 -49.5t41 -45.5l-20 -53q-23 7 -51 12t-58 5q-55 0 -85.5 -32t-30.5 -70q0 -46 32.5 -75.5t90.5 -29.5q42 0 80 10v-63 q-20 -11 -44.5 -16t-59.5 -5q-37 0 -71.5 11.5t-62 34.5t-45 57t-17.5 76z" />
<glyph unicode="&#xe4f;" horiz-adv-x="1263" d="M139 556q0 102 38 191.5t105 157t157.5 106t192.5 38.5q101 0 191.5 -38.5t158 -106t105 -157t37.5 -191.5t-37.5 -192.5t-105 -157.5t-158 -106.5t-191.5 -39.5q-102 0 -192.5 39.5t-157.5 106.5t-105 157t-38 193zM201 556q0 -90 34 -168t92.5 -137t137.5 -92.5 t167 -33.5q90 0 167.5 33.5t137 92.5t92.5 137t33 168q0 88 -33 166.5t-92.5 137.5t-137 92t-167.5 33q-88 0 -167 -33t-137.5 -92t-92.5 -138t-34 -166zM366 553q0 55 20.5 104t56.5 84.5t84.5 56.5t101.5 21q56 0 104.5 -21t84.5 -56.5t57 -83t21 -102.5t-21 -104.5 t-57 -84t-84.5 -55t-101.5 -20.5q-56 0 -104.5 20.5t-84.5 56.5t-56.5 83t-20.5 101zM451 553q0 -35 14 -67.5t38.5 -56.5t57.5 -39t71 -15q74 0 125 52t51 129q0 71 -52 123t-127 52q-71 0 -124.5 -52t-53.5 -126z" />
<glyph unicode="&#xe50;" horiz-adv-x="1448" d="M125 560q0 128 46.5 234.5t127.5 182.5t190.5 118t237.5 42q125 0 233.5 -42t190 -118t127 -183t45.5 -234q0 -129 -45.5 -235.5t-127 -183.5t-190 -118t-233.5 -41q-128 0 -237.5 41t-190.5 118t-127.5 183.5t-46.5 235.5zM232 560q0 -113 37.5 -203t104 -154t156.5 -99 t194 -35t194.5 35t156.5 99t104 153.5t38 203.5q0 113 -38 203.5t-104 154t-156.5 97.5t-194.5 34t-194 -34t-156.5 -97.5t-104 -154t-37.5 -203.5z" />
<glyph unicode="&#xe51;" horiz-adv-x="1482" d="M132 567q0 126 44 230t121.5 179t187 118t242.5 43q154 0 270 -56t192.5 -148.5t114.5 -216.5t38 -257q0 -174 -53 -307.5t-145.5 -225.5t-216.5 -139.5t-263 -47.5h-48l7 87h55q102 0 201.5 34t179.5 109t128.5 194t48.5 290q0 128 -30.5 237t-93.5 188.5t-159 125 t-229 45.5q-106 0 -196.5 -36.5t-155.5 -99.5t-101.5 -152.5t-36.5 -195.5q0 -95 27.5 -166.5t77.5 -122.5t117 -76.5t149 -25.5q39 0 85 11.5t85 29.5l11 -85q-39 -20 -89 -34.5t-103 -14.5q-92 0 -176.5 32.5t-148 94t-100.5 151.5t-37 208z" />
<glyph unicode="&#xe52;" horiz-adv-x="1700" d="M190 426v870h106v-870q0 -179 89.5 -258.5t232.5 -79.5h462q146 0 237.5 79.5t91.5 258.5v340q0 144 -53 205t-137 71l-221 -176l-230 168q-81 -18 -127.5 -82t-46.5 -144q0 -111 66.5 -172.5t165.5 -91.5l-37 -81q-132 29 -214 115t-82 225t76 224.5t204 109.5l225 -177 l203 177q166 -21 240 -113t74 -265v-333q0 -95 -27.5 -172.5t-80.5 -134.5t-131.5 -88t-180.5 -31h-488q-102 0 -180 31t-131 88t-79.5 134.5t-26.5 172.5z" />
<glyph unicode="&#xe53;" horiz-adv-x="1499" d="M144 548q0 125 26.5 231.5t77 186.5t120 125.5t157.5 45.5q89 0 153 -46.5t90 -127.5q38 81 107.5 127.5t156.5 46.5q81 0 135.5 -30.5t87 -80.5t46 -118t13.5 -144v-764h-106v768q0 49 -4.5 97.5t-22 87t-53 63t-96.5 24.5q-104 0 -162 -69.5t-58 -173.5v-353h-94v353 q0 101 -41 172t-143 71q-68 0 -122 -38.5t-89.5 -106t-54 -156.5t-18.5 -189q0 -110 21 -199.5t57 -151.5t85.5 -96t109.5 -34q67 0 120 30l24 -73q-29 -20 -69 -30t-82 -10q-76 0 -144.5 38t-118.5 111t-79.5 177.5t-29.5 235.5z" />
<glyph unicode="&#xe54;" horiz-adv-x="1358" d="M125 537q0 136 43.5 243.5t123 183.5t188 115t238.5 39h298q102 0 148 37t46 106v35h102v-35q0 -123 -73 -177.5t-223 -54.5h-296q-104 0 -194.5 -32t-155.5 -94.5t-101.5 -152.5t-36.5 -206q0 -111 28.5 -200.5t79.5 -149.5t117 -92.5t142 -32.5q74 0 121.5 29.5 t80.5 75.5q-46 81 -46 194q0 126 74 209t205 83h125l-15 -84h-110q-88 0 -132.5 -62.5t-44.5 -145.5q0 -74 23 -128.5t62 -89.5t91.5 -50.5t112.5 -15.5h134l-14 -84h-129q-84 0 -158 26.5t-127 79.5q-42 -53 -108 -88.5t-161 -35.5q-97 0 -180 38t-146 110.5t-97.5 174.5 t-34.5 232z" />
<glyph unicode="&#xe55;" horiz-adv-x="1358" d="M125 537q0 218 105.5 359t283.5 194q-44 49 -44 116q0 77 53 130t127 53t126 -53t52 -130q0 -47 -22 -88h210q102 0 148 37t46 106v35h102v-35q0 -123 -73 -177.5t-223 -54.5h-296q-104 0 -194.5 -32t-155.5 -94.5t-101.5 -152.5t-36.5 -206q0 -111 28.5 -200.5 t79.5 -149.5t117 -92.5t142 -32.5q74 0 121.5 29.5t80.5 75.5q-46 81 -46 194q0 126 74 209t205 83h125l-15 -84h-110q-88 0 -132.5 -62.5t-44.5 -145.5q0 -74 23 -128.5t62 -89.5t91.5 -50.5t112.5 -15.5h134l-14 -84h-129q-84 0 -158 26.5t-127 79.5q-42 -53 -108 -88.5 t-161 -35.5q-97 0 -180 38t-146 110.5t-97.5 174.5t-34.5 232zM550 1206q0 -47 29.5 -74.5t70.5 -27.5q39 0 67 29t28 75t-28 74t-67 28q-42 0 -71 -29t-29 -75z" />
<glyph unicode="&#xe56;" horiz-adv-x="1389" d="M46 1314h100l130 -393q77 104 188.5 160t264.5 56q115 0 214 -43t170.5 -118t112 -181t40.5 -230q0 -118 -32.5 -224.5t-102 -186t-178 -126t-261.5 -46.5q-130 0 -227 33.5t-162 88.5t-98 130.5t-33 158.5q0 67 20 122t58 92l81 -59q-26 -30 -42 -71.5t-16 -85.5 q0 -60 24.5 -116.5t75.5 -103t129.5 -74.5t184.5 -28q125 0 214.5 39.5t147 106.5t84 157.5t26.5 194.5q0 106 -28.5 195.5t-83 153t-135.5 98.5t-185 35q-160 0 -257 -62t-160 -147h-100z" />
<glyph unicode="&#xe57;" horiz-adv-x="1824" d="M144 548q0 125 26.5 231.5t72.5 186.5t112 125.5t147 45.5q161 0 216 -165q74 164 236 165q74 0 123.5 -30.5t80 -80.5t42.5 -118t12 -144v-667h68q116 0 185.5 59t69.5 204v936h106v-925q0 -174 -90.5 -272.5t-273.5 -98.5h-171v768q0 49 -3.5 97.5t-18.5 87t-46 63 t-84 24.5q-88 0 -140 -69.5t-52 -173.5v-103h-95v103q0 51 -4.5 94.5t-21 77t-47.5 52.5t-82 19q-62 0 -111.5 -38.5t-82.5 -106t-50.5 -156.5t-17.5 -189q0 -110 21 -199.5t57 -151.5t85.5 -96t109.5 -34q67 0 120 30l24 -73q-29 -20 -69 -30t-82 -10q-76 0 -144.5 38 t-118.5 111t-79.5 177.5t-29.5 235.5z" />
<glyph unicode="&#xe58;" horiz-adv-x="1422" d="M172 354v315q0 93 34.5 174.5t99.5 142t156 96.5t205 36h331q101 0 147.5 37t46.5 106v35h102v-35q0 -123 -73 -177.5t-223 -54.5h-318q-201 0 -301.5 -101.5t-100.5 -272.5v-297q0 -117 63.5 -189t160.5 -76l253 252l270 -248q84 28 141.5 104.5t57.5 178.5 q0 101 -53 163t-134 91l41 84q55 -12 102.5 -46t80.5 -80t51.5 -103.5t18.5 -115.5q0 -75 -28 -141t-73 -118t-102 -85.5t-117 -37.5l-256 238l-225 -238q-162 9 -260 101.5t-98 261.5z" />
<glyph unicode="&#xe59;" horiz-adv-x="1367" d="M125 567q0 126 27 230t78.5 179t127 118t172.5 43q55 0 98 -17.5t76.5 -44t56.5 -59.5t38 -65q11 84 65.5 135t128.5 51q86 0 136.5 -55t69.5 -124l60 338h86l-88 -463h-86q-16 104 -64.5 164.5t-108.5 60.5q-77 0 -116.5 -66.5t-39.5 -154.5l293 -837h-95l-295 835 q-14 37 -31.5 75.5t-43 69.5t-60 50t-80.5 19q-69 0 -125 -35t-94 -98.5t-58.5 -151.5t-20.5 -194q0 -111 22 -202.5t59.5 -157.5t88.5 -103.5t112 -37.5q67 0 120 30l24 -73q-29 -20 -69.5 -30t-81.5 -10q-76 0 -145.5 41.5t-121.5 117t-83.5 183t-31.5 239.5z" />
<glyph unicode="&#xe5b;" horiz-adv-x="2588" d="M153 664q0 107 32.5 196t92.5 154.5t146 103t190 37.5q90 0 160.5 -32.5t120.5 -86t78.5 -122.5t35.5 -146h-86q-9 63 -32 118.5t-61.5 96t-92.5 64.5t-126 24q-86 0 -152 -32t-112 -87.5t-70.5 -129.5t-24.5 -158q0 -94 35 -173t94 -138t139.5 -91.5t171.5 -32.5 q139 0 246.5 76.5t184 193.5t119.5 253t52 257h57l190 -594l146 545h60l165 -518l131 468h42q11 -88 37 -162.5t63 -128.5t85.5 -84.5t108.5 -30.5q55 0 116 24l25 -67q-42 -18 -76.5 -26.5t-76.5 -8.5q-104 0 -180 81t-134 211l-114 -431h-46l-173 519l-158 -561h-49 l-166 523q-35 -127 -95 -240t-143.5 -200t-187.5 -138t-229 -51q-111 0 -209.5 40.5t-171.5 110.5t-115.5 166.5t-42.5 207.5z" />
<glyph unicode="&#x2000;" horiz-adv-x="1167" />
<glyph unicode="&#x2001;" horiz-adv-x="2335" />
<glyph unicode="&#x2002;" horiz-adv-x="1167" />
<glyph unicode="&#x2003;" horiz-adv-x="2335" />
<glyph unicode="&#x2004;" horiz-adv-x="778" />
<glyph unicode="&#x2005;" horiz-adv-x="583" />
<glyph unicode="&#x2006;" horiz-adv-x="389" />
<glyph unicode="&#x2007;" horiz-adv-x="389" />
<glyph unicode="&#x2008;" horiz-adv-x="291" />
<glyph unicode="&#x2009;" horiz-adv-x="467" />
<glyph unicode="&#x200a;" horiz-adv-x="129" />
<glyph unicode="&#x2010;" horiz-adv-x="698" d="M79 609v85h541v-85h-541z" />
<glyph unicode="&#x2011;" horiz-adv-x="698" d="M79 609v85h541v-85h-541z" />
<glyph unicode="&#x2012;" horiz-adv-x="698" d="M79 609v85h541v-85h-541z" />
<glyph unicode="&#x2013;" horiz-adv-x="1170" d="M84 558v85h1004v-85h-1004z" />
<glyph unicode="&#x2014;" horiz-adv-x="2248" d="M176 558v85h1898v-85h-1898z" />
<glyph unicode="&#x2018;" horiz-adv-x="422" d="M139 1162q0 39 10 93.5t27.5 109.5t39.5 109t43 90l35 -11q-33 -65 -54.5 -147.5t-21.5 -151.5q0 -22 3.5 -32t21.5 -10q30 0 49.5 -19.5t19.5 -55.5q0 -35 -21.5 -57t-63.5 -22q-39 0 -63.5 25.5t-24.5 78.5z" />
<glyph unicode="&#x2019;" horiz-adv-x="422" d="M111 1504q0 35 22 57t64 22q39 0 63.5 -25.5t24.5 -78.5q0 -39 -11 -93.5t-28 -110.5t-39 -109t-43 -90l-34 12q33 65 54.5 146.5t21.5 152.5q0 22 -3.5 31.5t-21.5 9.5q-31 0 -50.5 19.5t-19.5 56.5z" />
<glyph unicode="&#x201a;" horiz-adv-x="422" d="M111 159q0 35 22 57t64 22q39 0 63.5 -25t24.5 -79q0 -39 -11 -93.5t-28 -110t-39 -109t-43 -90.5l-34 12q33 65 54.5 147t21.5 152q0 22 -3.5 32t-21.5 10q-31 0 -50.5 19.5t-19.5 55.5z" />
<glyph unicode="&#x201c;" horiz-adv-x="753" d="M139 1162q0 39 10 93.5t27.5 109.5t39.5 109t43 90l35 -11q-33 -65 -54.5 -147.5t-21.5 -151.5q0 -22 3.5 -32t21.5 -10q30 0 49.5 -19.5t19.5 -55.5q0 -35 -21.5 -57t-63.5 -22q-39 0 -63.5 25.5t-24.5 78.5zM470 1162q0 39 10 93.5t27.5 109.5t40 109t42.5 90l35 -11 q-33 -65 -55 -147.5t-22 -151.5q0 -22 4 -32t22 -10q31 0 50 -19.5t19 -55.5q0 -35 -22 -57t-63 -22q-39 0 -63.5 25.5t-24.5 78.5z" />
<glyph unicode="&#x201d;" horiz-adv-x="753" d="M111 1504q0 35 22 57t64 22q39 0 63.5 -25.5t24.5 -78.5q0 -39 -11 -93.5t-28 -110.5t-39 -109t-43 -90l-34 12q33 65 54.5 146.5t21.5 152.5q0 22 -3.5 31.5t-21.5 9.5q-31 0 -50.5 19.5t-19.5 56.5zM442 1504q0 35 22 57t64 22q39 0 63.5 -25.5t24.5 -78.5 q0 -39 -11 -93.5t-28 -110.5t-39 -109t-43 -90l-34 12q33 65 54.5 146.5t21.5 152.5q0 22 -3.5 31.5t-21.5 9.5q-31 0 -50.5 19.5t-19.5 56.5z" />
<glyph unicode="&#x201e;" horiz-adv-x="753" d="M111 159q0 35 22 57t64 22q39 0 63.5 -25t24.5 -79q0 -39 -11 -93.5t-28 -110t-39 -109t-43 -90.5l-34 12q33 65 54.5 147t21.5 152q0 22 -3.5 32t-21.5 10q-31 0 -50.5 19.5t-19.5 55.5zM442 159q0 35 22 57t64 22q39 0 63.5 -25t24.5 -79q0 -39 -11 -93.5t-28 -110 t-39 -109t-43 -90.5l-34 12q33 65 54.5 147t21.5 152q0 22 -3.5 32t-21.5 10q-31 0 -50.5 19.5t-19.5 55.5z" />
<glyph unicode="&#x2020;" horiz-adv-x="1221" d="M157 1023v65h403v471h102v-471h402v-65h-402v-1023h-102v1023h-403z" />
<glyph unicode="&#x2021;" horiz-adv-x="1221" d="M157 356v65h403v602h-403v65h403v471h102v-471h402v-65h-402v-602h402v-65h-402v-471h-102v471h-403z" />
<glyph unicode="&#x2022;" horiz-adv-x="670" d="M130 815q0 83 51 144t155 61t154.5 -61t50.5 -144q0 -84 -50.5 -145t-154.5 -61t-155 61t-51 145z" />
<glyph unicode="&#x2026;" horiz-adv-x="1499" d="M153 77q0 39 24 67t73 28q48 0 72.5 -28.5t24.5 -66.5q0 -40 -24.5 -67.5t-72.5 -27.5q-49 0 -73 27.5t-24 67.5zM653 77q0 39 24.5 67t72.5 28q49 0 73.5 -28.5t24.5 -66.5q0 -40 -24.5 -67.5t-73.5 -27.5q-48 0 -72.5 27.5t-24.5 67.5zM1153 77q0 39 24 67t73 28 q48 0 72.5 -28.5t24.5 -66.5q0 -40 -24.5 -67.5t-72.5 -27.5q-49 0 -73 27.5t-24 67.5z" />
<glyph unicode="&#x202f;" horiz-adv-x="467" />
<glyph unicode="&#x2030;" horiz-adv-x="2513" d="M115 1120q0 77 21 149.5t60.5 129t98.5 90.5t133 34q75 0 132.5 -34t97.5 -90.5t61 -129t21 -149.5t-21 -149.5t-61 -129.5t-98 -90t-132 -33t-133 33t-98.5 90t-60.5 129.5t-21 149.5zM206 1120q0 -62 14 -121.5t41.5 -104t69.5 -73t97 -28.5q56 0 97.5 28.5t69.5 73 t41.5 104t13.5 121.5t-13.5 121.5t-41.5 104.5t-69.5 72.5t-97.5 27.5q-55 0 -97 -27.5t-69.5 -72.5t-41.5 -104.5t-14 -121.5zM389 0l847 1528h97l-847 -1528h-97zM981 384q0 77 21 150t60.5 129.5t98 89.5t133.5 33q74 0 132 -33t98 -89.5t61 -129.5t21 -150t-21 -149.5 t-61 -129t-98.5 -90t-131.5 -33.5q-75 0 -133.5 33.5t-98 90t-60.5 129t-21 149.5zM1071 384q0 -62 14 -121.5t42 -104.5t69.5 -72.5t97.5 -27.5q55 0 97 27.5t69.5 72.5t41 104.5t13.5 121.5t-13.5 121.5t-41 104.5t-69.5 73t-97 28q-56 0 -97.5 -28t-69.5 -73t-42 -104.5 t-14 -121.5zM1773 384q0 77 21 150t60 129.5t98 89.5t133 33t132 -33t98.5 -89.5t61.5 -129.5t21 -150t-21 -149.5t-61.5 -129t-98.5 -90t-132 -33.5q-75 0 -133.5 33.5t-97.5 90t-60 129t-21 149.5zM1863 384q0 -62 13.5 -121.5t41.5 -104.5t69.5 -72.5t97.5 -27.5 q55 0 97 27.5t69.5 72.5t41.5 104.5t14 121.5t-14 121.5t-41.5 104.5t-69.5 73t-97 28q-56 0 -97.5 -28t-69.5 -73t-41.5 -104.5t-13.5 -121.5z" />
<glyph unicode="&#x2039;" horiz-adv-x="605" d="M93 560l307 412h99l-300 -412l300 -412h-99z" />
<glyph unicode="&#x203a;" horiz-adv-x="605" d="M106 148l301 412l-301 412h100l308 -412l-308 -412h-100z" />
<glyph unicode="&#x2044;" horiz-adv-x="943" d="M0 0l848 1528h97l-848 -1528h-97z" />
<glyph unicode="&#x205f;" horiz-adv-x="583" />
<glyph unicode="&#x20ac;" horiz-adv-x="1263" d="M99 581l26 79h169q-5 30 -5 59v61q0 26 1.5 53.5t3.5 56.5h-195l26 80h180q18 110 61 220.5t113.5 196t169.5 139t228 53.5q102 0 172.5 -36.5t123.5 -84.5l-25 -81q-102 102 -260 102q-108 0 -189 -43t-139 -113.5t-93.5 -162t-51.5 -190.5h545l-25 -80h-533 q-2 -28 -3 -55t-1 -55q0 -62 7 -120h555l-25 -79h-518q20 -109 63 -200.5t105 -158.5t143.5 -105t178.5 -38q82 0 144 26.5t115 77.5l28 -84q-53 -53 -120 -86t-178 -33q-123 0 -222.5 48.5t-173.5 131.5t-122.5 192t-70.5 229h-208z" />
<glyph unicode="&#x2113;" horiz-adv-x="879" d="M42 428q115 60 240 166v537q0 104 15 191t49 150t84.5 98.5t119.5 35.5q111 0 179 -80t68 -232q0 -223 -100 -402t-308 -327v-245q0 -120 28.5 -184.5t121.5 -64.5q40 0 69.5 8.5t55.5 19.5l25 -79q-26 -13 -67 -24.5t-92 -11.5q-109 0 -178.5 75t-69.5 261v182 q-32 -33 -85 -67.5t-118 -70.5zM389 667q83 66 141 133.5t94 141.5t50.5 160t14.5 190q0 136 -39 181t-97 45q-89 0 -126.5 -91t-37.5 -296v-464z" />
<glyph unicode="&#x2122;" horiz-adv-x="1767" d="M46 1479v80h637v-80l-271 2v-798h-94v798zM842 683v876h125l221 -501q11 -23 28.5 -65t28.5 -83h5q11 41 28.5 82.5t28.5 65.5l221 501h124v-876h-95v539v51.5t1 64t2.5 64t3.5 53.5h-7q-11 -46 -32 -100t-46 -112l-176 -398h-111l-176 398q-26 58 -46.5 112t-32.5 100 h-7q2 -22 3.5 -53.5t2.5 -64t1 -63.5v-52v-539h-95z" />
<glyph unicode="&#x2126;" horiz-adv-x="1689" d="M166 890q0 158 47.5 285.5t135.5 216.5t213 138t283 49q155 0 281 -49t214 -138t135.5 -216t47.5 -286q0 -139 -43 -258.5t-105.5 -219.5t-134.5 -179.5t-129 -137.5h322v-95h-448v81q63 51 138.5 127.5t139.5 174.5t107.5 216.5t43.5 254.5q0 151 -39 267.5t-113 196.5 t-179.5 120.5t-237.5 40.5t-237.5 -40.5t-179.5 -120.5t-113 -196.5t-39 -267.5q0 -136 42 -254.5t107 -216.5t139 -174.5t138 -127.5v-81h-445v95h319q-57 58 -129 137.5t-134.5 179.5t-104.5 220.5t-42 257.5z" />
<glyph unicode="&#x212e;" horiz-adv-x="1892" d="M84 748q0 170 68 312.5t184.5 245.5t274 161.5t336.5 58.5q178 0 335.5 -57.5t274.5 -159t185 -240.5t68 -303v-51h-1412v-423q20 -26 72.5 -69.5t125.5 -85.5t163.5 -73t185.5 -31q99 0 188 27.5t160.5 66.5t123.5 84.5t78 80.5h166q-132 -160 -321.5 -241.5 t-392.5 -81.5q-179 0 -336.5 57.5t-274 160t-184.5 246t-68 315.5zM398 780h1097v421q-26 35 -78 80.5t-125 85.5t-160.5 66.5t-186.5 26.5q-95 0 -185.5 -31t-163.5 -73t-125 -86t-73 -69v-421z" />
<glyph unicode="&#x2202;" horiz-adv-x="1355" d="M115 340q0 113 42 228t117 205t182 146.5t236 56.5q79 0 141.5 -23t111 -59.5t82 -82t53.5 -89.5q18 88 30 177t12 168q0 181 -82 278t-241 97q-157 0 -283 -70l-14 79q60 30 141 51t179 21q201 0 305.5 -115.5t104.5 -340.5q0 -100 -20 -219t-61.5 -239.5t-104.5 -234 t-146 -200t-189 -139.5t-234 -53q-91 0 -159 27.5t-113.5 76t-67.5 113t-22 141.5zM225 329q0 -130 69.5 -198.5t200.5 -68.5q90 0 177 45.5t161 122.5t129.5 183t86.5 225q-23 47 -53.5 93t-72.5 82.5t-95 59.5t-119 23q-120 0 -211 -51.5t-152 -133.5t-91 -182.5 t-30 -199.5z" />
<glyph unicode="&#x2206;" horiz-adv-x="1420" d="M93 0l590 1559h57l589 -1559h-1236zM232 97h958l-479 1287z" />
<glyph unicode="&#x220f;" horiz-adv-x="1360" d="M208 -111v1670h945v-1670h-109v1575h-726v-1575h-110z" />
<glyph unicode="&#x2211;" horiz-adv-x="1230" d="M93 -49l634 782l-588 746v80h930v-95h-798l571 -731l-613 -756h886v-95h-1022v69z" />
<glyph unicode="&#x2212;" horiz-adv-x="1263" d="M144 611v91h976v-91h-976z" />
<glyph unicode="&#x221a;" horiz-adv-x="1195" d="M46 850v89h264l257 -888l429 1508h108l-459 -1590h-146l-265 881h-188z" />
<glyph unicode="&#x221e;" horiz-adv-x="1730" d="M134 718q0 143 92 232.5t235 89.5q64 0 122 -21t108.5 -58.5t93.5 -85t81 -98.5q30 42 71.5 88.5t92 84.5t110 64t128.5 26t129.5 -23.5t104.5 -66.5t69.5 -101t25.5 -127t-23.5 -129.5t-65 -103.5t-101.5 -68t-135 -25q-117 0 -221 77t-176 189q-42 -53 -89.5 -101.5 t-99.5 -84.5t-108.5 -58t-118.5 -22q-69 0 -128.5 23t-103.5 64.5t-68.5 100.5t-24.5 134zM220 720q0 -118 72 -188.5t183 -70.5q53 0 102.5 23t95 59t85.5 83t73 96q-67 118 -162 185t-199 67q-120 0 -185 -75t-65 -179zM896 718q75 -118 167 -187.5t198 -69.5 q62 0 108.5 21.5t78 57.5t47.5 82.5t16 97.5q0 104 -62 179t-188 75q-111 0 -195.5 -68.5t-169.5 -187.5z" />
<glyph unicode="&#x222b;" horiz-adv-x="939" d="M115 -84l26 79q26 -11 56 -19.5t70 -8.5q92 0 121 64t29 184v1028q0 185 69.5 260.5t177.5 75.5q51 0 93 -12t67 -26l-25 -79q-26 12 -56 20t-70 8q-92 0 -121 -63.5t-29 -183.5v-1028q0 -93 -18.5 -156.5t-52 -104t-78.5 -57.5t-98 -17q-51 0 -93 11.5t-68 24.5z" />
<glyph unicode="&#x2248;" horiz-adv-x="1263" d="M146 389q20 30 50.5 63.5t68.5 60t79.5 44t88.5 17.5q74 0 123 -22t90 -48.5t81.5 -48.5t98.5 -22q88 0 147 43t98 98l47 -46q-21 -33 -51 -65t-68.5 -59t-81 -44.5t-86.5 -17.5q-77 0 -126.5 22t-90 49t-81 49t-96.5 22q-88 0 -146.5 -43t-98.5 -99zM146 828 q20 31 50.5 64t68.5 60t79.5 44.5t88.5 17.5q74 0 123 -22t90 -49t81.5 -49t98.5 -22q88 0 147 43t98 99l47 -47q-21 -32 -51 -64.5t-68.5 -59t-81 -44t-86.5 -17.5q-77 0 -126.5 22t-90 48.5t-81 48.5t-96.5 22q-88 0 -146.5 -43t-98.5 -98z" />
<glyph unicode="&#x2260;" horiz-adv-x="1263" d="M172 402v91h369l144 361h-513v91h550l157 393h75l-157 -393h296v-91h-334l-143 -361h477v-91h-514l-160 -402h-72l160 402h-335z" />
<glyph unicode="&#x2264;" horiz-adv-x="1263" d="M139 0v71h939v-71h-939zM139 660v69l939 534v-106l-824 -463l824 -462v-107z" />
<glyph unicode="&#x2265;" horiz-adv-x="1263" d="M185 0v71h939v-71h-939zM185 125v107l824 462l-824 463v106l939 -534v-69z" />
<glyph unicode="&#x25ca;" horiz-adv-x="1314" d="M93 791l530 792h69l530 -792l-530 -791h-69zM199 791l459 -687l453 687l-453 688z" />
<glyph unicode="&#x25fc;" horiz-adv-x="1120" d="M0 0v1120h1120v-1120h-1120z" />
<glyph unicode="&#xe000;" horiz-adv-x="1122" d="M0 0v1122h1122v-1122h-1122z" />
<glyph unicode="&#xf700;" horiz-adv-x="1228" d="M64 1150q86 67 210 115.5t276 48.5q91 0 167 -23t140 -63l141 159h124l-192 -216q86 -84 130 -203.5t44 -265.5q0 -153 -40.5 -283t-113.5 -222.5t-172.5 -144.5t-217.5 -52h-107l-135 576q-14 58 -73 58h-90v90h92q89 0 123.5 -33t48.5 -94l120 -507h40q79 0 153 40 t132.5 116t95 189t36.5 263q0 237 -115 379t-333 142q-150 0 -255 -41t-194 -107z" />
<glyph unicode="&#xf701;" d="M-1285 1490v91h839v-91h-839z" />
<glyph unicode="&#xf702;" d="M-1285 1490v91h735v229h104v-320h-839z" />
<glyph unicode="&#xf703;" d="M-1285 1490v91h570q-12 13 -21 35t-9 43q0 71 50 121.5t116 50.5q69 0 119.5 -50t50.5 -122q0 -69 -50.5 -119t-119.5 -50h-706zM-660 1659q0 -40 24.5 -62.5t56.5 -22.5q35 0 59.5 23t24.5 62q0 42 -24.5 65t-59.5 23q-32 0 -56.5 -23t-24.5 -65z" />
<glyph unicode="&#xf704;" d="M-1285 1490v91h526v229h99v-234h114v234h100v-320h-839z" />
<glyph unicode="&#xf705;" d="M-740 1490v354h108v-354h-108z" />
<glyph unicode="&#xf706;" d="M-1049 1738v88h161q55 0 86 -27.5t31 -95.5v-85q0 -16 7 -26.5t31 -10.5h344v-91h-368q-58 0 -90 29t-32 82v86q0 51 -51 51h-119z" />
<glyph unicode="&#xf707;" d="M-1157 1608q0 75 45 129t121 73l114 -81l122 84q65 -10 110.5 -61t45.5 -116q0 -46 -19 -83q58 26 90.5 66t32.5 114q0 29 -8.5 61t-17.5 48h109q6 -16 16 -43.5t10 -67.5q0 -42 -17.5 -85t-51 -77t-82 -56.5t-113.5 -22.5h-59l-6 28q6 9 14.5 37t8.5 48q0 47 -17.5 74.5 t-40.5 37.5l-129 -79l-119 84q-22 -11 -38.5 -45t-16.5 -72q0 -30 3.5 -61t15.5 -56h-101q-11 26 -16.5 62.5t-5.5 59.5z" />
<glyph unicode="&#xf708;" d="M-939 1680v88l197 -4l-3 190h104l-2 -190l201 4v-88l-201 3l2 -193h-104l3 193z" />
<glyph unicode="&#xf709;" d="M-905 1490v86q0 77 51 126.5t150 49.5h251v-91h-239q-62 0 -85.5 -27.5t-23.5 -76.5v-67h-104z" />
<glyph unicode="&#xf70a;" d="M-301 1490v354h109v-354h-109z" />
<glyph unicode="&#xf70b;" d="M-678 1738v88h159q56 0 87.5 -27.5t31.5 -95.5v-85q0 -16 7 -26.5t29 -10.5h346v-91h-368q-58 0 -91 29t-33 82v86q0 51 -50 51h-118z" />
<glyph unicode="&#xf70c;" d="M-750 1608q0 75 45 129t122 73l113 -81l123 84q65 -10 110 -61t45 -116q0 -46 -18 -83q57 26 89.5 66t32.5 114q0 29 -8 61t-17 48h108q7 -16 16 -43.5t9 -67.5q0 -42 -17 -85t-50.5 -77t-82.5 -56.5t-113 -22.5h-58l-6 28q6 9 14 37t8 48q0 47 -17.5 74.5t-39.5 37.5 l-130 -79l-118 84q-22 -11 -38.5 -45t-16.5 -72q0 -30 3.5 -61t14.5 -56h-100q-11 26 -17 62.5t-6 59.5z" />
<glyph unicode="&#xf70d;" d="M-499 1680v88l196 -4l-2 190h104l-2 -190l201 4v-88l-201 3l2 -193h-104l2 193z" />
<glyph unicode="&#xf70e;" d="M-512 1490v86q0 77 51.5 126.5t150.5 49.5h257v-91h-245q-62 0 -85.5 -27.5t-23.5 -76.5v-67h-105z" />
<glyph unicode="&#xf70f;" horiz-adv-x="2107" d="M130 949q23 67 70 133t115.5 118t153 83t181.5 31q117 0 208 -38t150 -104t89 -156.5t30 -196.5v-414q0 -170 87 -249t253 -79t253 79.5t87 248.5v891h109v-894q0 -212 -116.5 -316t-332.5 -104q-215 0 -332 104t-117 316v417q0 181 -90.5 290.5t-277.5 109.5 q-144 0 -246.5 -76t-156.5 -183l219 -171v-21q-80 -28 -121.5 -90t-41.5 -144v-362q0 -82 79 -82h122v-90h-131q-81 0 -130 42t-49 124v355q0 88 38.5 158.5t112.5 102.5z" />
<glyph unicode="&#xf710;" d="M-976 1650v83h104v-66q0 -47 20.5 -66.5t74.5 -19.5h476v-91h-490q-84 0 -134.5 38t-50.5 122z" />
<glyph unicode="&#xf711;" d="M-890 1632q0 83 55 137.5t133 54.5q79 0 134.5 -54.5t55.5 -137.5q0 -84 -55.5 -138t-134.5 -54t-133.5 54t-54.5 138zM-812 1632q0 -53 35 -85t75 -32q42 0 77 32t35 85t-35 84t-77 31t-76 -31t-34 -84z" />
<glyph unicode="&#xf712;" d="M-1144 1676q0 37 14.5 74t41 66.5t68 47t97.5 17.5h479v-83h-472q-60 0 -95 -33.5t-35 -90.5q0 -47 33.5 -81t82.5 -34q53 0 82 24.5t40 64.5h81q12 -40 42 -54.5t65 -14.5h176v-89h-167q-42 0 -90.5 22.5t-64.5 79.5q-14 -57 -64.5 -82.5t-104.5 -25.5q-99 0 -154 56.5 t-55 135.5z" />
<glyph unicode="&#xf713;" d="M-546 1937v282h100v-282h-100z" />
<glyph unicode="&#xf714;" d="M-859 2150v81h139q49 0 76.5 -23.5t27.5 -83.5v-71q0 -33 33 -33h303v-83h-326q-106 0 -107 97v72q0 44 -43 44h-103z" />
<glyph unicode="&#xf715;" d="M-910 2041q0 64 39.5 111t106.5 65l100 -72l107 74q58 -4 96.5 -50.5t38.5 -103.5q0 -12 -2 -36t-7 -39q51 20 76.5 56.5t25.5 103.5q0 26 -8 53.5t-14 41.5h94q7 -13 15 -38t8 -59q0 -35 -14.5 -73.5t-43.5 -68.5t-73 -49.5t-99 -19.5h-51l-8 24q7 9 14 34t7 41 q0 29 -15 60t-36 37l-114 -68l-110 73q-12 -5 -18.5 -17t-13 -28.5t-8.5 -32t-2 -24.5q0 -26 3.5 -53t13.5 -51h-86q-11 21 -16.5 54.5t-5.5 54.5z" />
<glyph unicode="&#xf716;" d="M-715 2100v75l174 -2l-3 162h95l-2 -162l176 2v-75l-176 2l2 -165h-95l3 165z" />
<glyph unicode="&#xf717;" d="M-722 1727v66q0 71 47.5 118t142.5 47h220v-83h-203q-60 0 -82.5 -26.5t-22.5 -71.5v-50h-102z" />
<glyph unicode="&#xf718;" d="M-426 -541h81q75 0 114 -36.5t39 -118.5v-183h-104v187q0 38 -15.5 51.5t-44.5 13.5h-70v86z" />
<glyph unicode="&#xf719;" d="M-797 -541h209v-146q0 -79 36 -107t110 -28q75 0 110.5 28t35.5 107v146h104v-146q0 -220 -250 -220t-250 220v60h-105v86z" />
<glyph unicode="&#xf71a;" d="M-360 -638q0 44 31 75t77 31t77 -31t31 -75q0 -45 -31 -76t-77 -31t-77 31t-31 76z" />
<glyph unicode="&#xf71b;" horiz-adv-x="1383" d="M88 0v90h84q69 0 69 74v357q0 88 40.5 154.5t107.5 99.5l-248 160q23 66 72.5 135t120.5 123.5t160 87.5t189 33q123 0 218 -38t159 -104t98 -156.5t34 -196.5v-1236h-130q-60 53 -153.5 97t-225.5 44q-107 0 -186.5 -36.5t-147.5 -102.5l-29 93q55 58 140.5 99.5 t224.5 41.5q115 0 223 -45t175 -110v1155q0 181 -102 290.5t-298 109.5q-77 0 -142.5 -23t-120 -60t-95 -84t-64.5 -96l258 -174v-20q-79 -29 -124.5 -87.5t-45.5 -140.5v-375q0 -83 -44 -121t-124 -38h-93z" />
<glyph unicode="&#xf71c;" horiz-adv-x="1383" d="M88 0v90h84q69 0 69 74v357q0 88 40.5 154.5t107.5 99.5l-248 160q23 66 72.5 135t120.5 123.5t160 87.5t189 33q123 0 218 -38t159 -104t98 -156.5t34 -196.5v-1236h-114l-307 185q-40 -97 -115 -148t-163 -51t-161 23.5t-114 51.5l32 93q44 -31 107.5 -54t130.5 -23 q97 0 156.5 67t84.5 174l354 -211v1129q0 181 -102 290.5t-298 109.5q-77 0 -142.5 -23t-120 -60t-95 -84t-64.5 -96l258 -174v-20q-79 -29 -124.5 -87.5t-45.5 -140.5v-375q0 -83 -44 -121t-124 -38h-93z" />
<glyph unicode="&#xf71d;" horiz-adv-x="1480" d="M197 0v1296h106v-921q0 -62 -4.5 -127t-13.5 -130h2q14 41 37 100.5t42 96.5l319 617h101l327 -617q18 -37 42.5 -96.5t38.5 -100.5h3q-9 64 -14.5 129t-5.5 128v389q0 104 -50.5 164t-130.5 60h-57l-16 46l262 353h120l-252 -329q111 -12 171.5 -94.5t60.5 -197.5v-766 h-121l-363 692q-26 50 -41 90t-22 72h-5q-6 -32 -21.5 -72t-40.5 -90l-353 -692h-121z" />
<glyph horiz-adv-x="1045" d="M-890 1632q0 83 55 137.5t133 54.5q79 0 134.5 -54.5t55.5 -137.5q0 -84 -55.5 -138t-134.5 -54t-133.5 54t-54.5 138zM-812 1632q0 -53 35 -85t75 -32q42 0 77 32t35 85t-35 84t-77 31t-76 -31t-34 -84zM28 1173q67 53 174.5 97t228.5 44q214 0 318.5 -120t104.5 -346 v-848h-109v857q0 194 -77.5 278t-230.5 84q-110 0 -208.5 -37.5t-170.5 -91.5z" />
<glyph d="M-877 1669q0 35 13.5 67t44 56.5t78 36t112.5 2.5q-26 20 -35 42t-9 50q0 42 36 81t109 39h104l19 -71h-94q-54 0 -72.5 -22t-18.5 -48q0 -21 13.5 -49.5t42.5 -45.5l-22 -53q-23 7 -50.5 12t-57.5 5q-56 0 -86 -32t-30 -70q0 -46 32.5 -75.5t89.5 -29.5q42 0 82 10v-63 q-21 -11 -45 -16t-59 -5q-38 0 -72 11.5t-62 34.5t-45.5 57t-17.5 76z" />
</font>
</defs>
</svg>
